<?xml version="1.0" encoding="utf-8" standalone="no"?>
<!DOCTYPE svg PUBLIC "-//W3C//DTD SVG 1.1//EN"
  "http://www.w3.org/Graphics/SVG/1.1/DTD/svg11.dtd">
<svg xmlns:xlink="http://www.w3.org/1999/xlink" width="432pt" height="288pt" viewBox="0 0 432 288" xmlns="http://www.w3.org/2000/svg" version="1.1">
 <metadata>
  <rdf:RDF xmlns:dc="http://purl.org/dc/elements/1.1/" xmlns:cc="http://creativecommons.org/ns#" xmlns:rdf="http://www.w3.org/1999/02/22-rdf-syntax-ns#">
   <cc:Work>
    <dc:type rdf:resource="http://purl.org/dc/dcmitype/StillImage"/>
    <dc:date>2025-01-14T14:45:00.059529</dc:date>
    <dc:format>image/svg+xml</dc:format>
    <dc:creator>
     <cc:Agent>
      <dc:title>Matplotlib v3.5.2, https://matplotlib.org/</dc:title>
     </cc:Agent>
    </dc:creator>
   </cc:Work>
  </rdf:RDF>
 </metadata>
 <defs>
  <style type="text/css">*{stroke-linejoin: round; stroke-linecap: butt}</style>
 </defs>
 <g id="figure_1">
  <g id="patch_1">
   <path d="M 0 288 
L 432 288 
L 432 0 
L 0 0 
z
" style="fill: #ffffff"/>
  </g>
  <g id="axes_1">
   <g id="patch_2">
    <path d="M 54 252 
L 388.8 252 
L 388.8 34.56 
L 54 34.56 
z
" style="fill: #ffffff"/>
   </g>
   <g id="matplotlib.axis_1">
    <g id="xtick_1">
     <g id="line2d_1">
      <defs>
       <path id="m9661deba89" d="M 0 0 
L 0 3.5 
" style="stroke: #000000; stroke-width: 0.8"/>
      </defs>
      <g>
       <use xlink:href="#m9661deba89" x="54" y="252" style="stroke: #000000; stroke-width: 0.8"/>
      </g>
     </g>
     <g id="text_1">
      <text style="font: 16px 'sans-serif'; text-anchor: middle" x="54" y="271.1575" transform="rotate(-0, 54, 271.1575)">600</text>
     </g>
    </g>
    <g id="xtick_2">
     <g id="line2d_2">
      <g>
       <use xlink:href="#m9661deba89" x="137.7" y="252" style="stroke: #000000; stroke-width: 0.8"/>
      </g>
     </g>
     <g id="text_2">
      <text style="font: 16px 'sans-serif'; text-anchor: middle" x="137.7" y="271.1575" transform="rotate(-0, 137.7, 271.1575)">700</text>
     </g>
    </g>
    <g id="xtick_3">
     <g id="line2d_3">
      <g>
       <use xlink:href="#m9661deba89" x="221.4" y="252" style="stroke: #000000; stroke-width: 0.8"/>
      </g>
     </g>
     <g id="text_3">
      <text style="font: 16px 'sans-serif'; text-anchor: middle" x="221.4" y="271.1575" transform="rotate(-0, 221.4, 271.1575)">800</text>
     </g>
    </g>
    <g id="xtick_4">
     <g id="line2d_4">
      <g>
       <use xlink:href="#m9661deba89" x="305.1" y="252" style="stroke: #000000; stroke-width: 0.8"/>
      </g>
     </g>
     <g id="text_4">
      <text style="font: 16px 'sans-serif'; text-anchor: middle" x="305.1" y="271.1575" transform="rotate(-0, 305.1, 271.1575)">900</text>
     </g>
    </g>
    <g id="xtick_5">
     <g id="line2d_5">
      <g>
       <use xlink:href="#m9661deba89" x="388.8" y="252" style="stroke: #000000; stroke-width: 0.8"/>
      </g>
     </g>
     <g id="text_5">
      <text style="font: 16px 'sans-serif'; text-anchor: middle" x="388.8" y="271.1575" transform="rotate(-0, 388.8, 271.1575)">1000</text>
     </g>
    </g>
    <g id="text_6">
     <text style="font: 20px 'sans-serif'; text-anchor: middle" x="221.4" y="293.681875" transform="rotate(-0, 221.4, 293.681875)">Wavelength, nm</text>
    </g>
   </g>
   <g id="matplotlib.axis_2">
    <g id="ytick_1">
     <g id="line2d_6">
      <defs>
       <path id="m41a7394cd7" d="M 0 0 
L -3.5 0 
" style="stroke: #000000; stroke-width: 0.8"/>
      </defs>
      <g>
       <use xlink:href="#m41a7394cd7" x="54" y="252" style="stroke: #000000; stroke-width: 0.8"/>
      </g>
     </g>
     <g id="text_7">
      <text style="font: 16px 'sans-serif'; text-anchor: end" x="47" y="258.07875" transform="rotate(-0, 47, 258.07875)">0.00</text>
     </g>
    </g>
    <g id="ytick_2">
     <g id="line2d_7">
      <g>
       <use xlink:href="#m41a7394cd7" x="54" y="215.76" style="stroke: #000000; stroke-width: 0.8"/>
      </g>
     </g>
     <g id="text_8">
      <text style="font: 16px 'sans-serif'; text-anchor: end" x="47" y="221.83875" transform="rotate(-0, 47, 221.83875)">0.02</text>
     </g>
    </g>
    <g id="ytick_3">
     <g id="line2d_8">
      <g>
       <use xlink:href="#m41a7394cd7" x="54" y="179.52" style="stroke: #000000; stroke-width: 0.8"/>
      </g>
     </g>
     <g id="text_9">
      <text style="font: 16px 'sans-serif'; text-anchor: end" x="47" y="185.59875" transform="rotate(-0, 47, 185.59875)">0.04</text>
     </g>
    </g>
    <g id="ytick_4">
     <g id="line2d_9">
      <g>
       <use xlink:href="#m41a7394cd7" x="54" y="143.28" style="stroke: #000000; stroke-width: 0.8"/>
      </g>
     </g>
     <g id="text_10">
      <text style="font: 16px 'sans-serif'; text-anchor: end" x="47" y="149.35875" transform="rotate(-0, 47, 149.35875)">0.06</text>
     </g>
    </g>
    <g id="ytick_5">
     <g id="line2d_10">
      <g>
       <use xlink:href="#m41a7394cd7" x="54" y="107.04" style="stroke: #000000; stroke-width: 0.8"/>
      </g>
     </g>
     <g id="text_11">
      <text style="font: 16px 'sans-serif'; text-anchor: end" x="47" y="113.11875" transform="rotate(-0, 47, 113.11875)">0.08</text>
     </g>
    </g>
    <g id="ytick_6">
     <g id="line2d_11">
      <g>
       <use xlink:href="#m41a7394cd7" x="54" y="70.8" style="stroke: #000000; stroke-width: 0.8"/>
      </g>
     </g>
     <g id="text_12">
      <text style="font: 16px 'sans-serif'; text-anchor: end" x="47" y="76.87875" transform="rotate(-0, 47, 76.87875)">0.10</text>
     </g>
    </g>
    <g id="ytick_7">
     <g id="line2d_12">
      <g>
       <use xlink:href="#m41a7394cd7" x="54" y="34.56" style="stroke: #000000; stroke-width: 0.8"/>
      </g>
     </g>
     <g id="text_13">
      <text style="font: 16px 'sans-serif'; text-anchor: end" x="47" y="40.63875" transform="rotate(-0, 47, 40.63875)">0.12</text>
     </g>
    </g>
    <g id="text_14">
     <text style="font: 20px 'sans-serif'; text-anchor: middle" x="3.215625" y="143.28" transform="rotate(-90, 3.215625, 143.28)">Abs.</text>
    </g>
   </g>
   <g id="line2d_13">
    <path d="M 53.83366 128.522785 
L 56.001784 128.896798 
L 58.167677 128.937177 
L 61.329191 130.276655 
L 65.149888 131.424249 
L 65.979546 131.540922 
L 68.466523 131.700002 
L 73.431488 132.811094 
L 76.239637 132.760298 
L 79.043918 133.373284 
L 82.338114 133.510512 
L 84.312053 133.550597 
L 88.254119 134.252474 
L 90.058305 134.592895 
L 92.515926 135.418668 
L 95.461055 137.463228 
L 99.381064 141.511383 
L 104.270074 147.01542 
L 109.309168 154.54464 
L 112.715287 159.636461 
L 115.791808 162.669892 
L 120.316595 165.151862 
L 122.413721 166.068286 
L 126.922693 167.000047 
L 129.494383 167.325208 
L 132.222919 167.435437 
L 135.908084 167.31312 
L 138.307491 167.4829 
L 144.849866 170.003748 
L 149.622078 171.180855 
L 153.113677 171.74578 
L 155.648749 171.958331 
L 159.760546 171.642971 
L 162.443869 171.179466 
L 165.910334 169.45012 
L 170.469278 163.523182 
L 173.606412 160.070003 
L 178.770216 155.995001 
L 181.268277 153.790266 
L 184.852816 149.928286 
L 190.44815 142.145348 
L 193.393721 138.404316 
L 196.488694 134.729836 
L 201.274465 126.106211 
L 205.738858 117.060375 
L 208.657174 110.882171 
L 212.948257 107.143703 
L 221.343783 105.791378 
L 225.600809 108.009346 
L 226.208013 109.096364 
L 230.14909 116.602175 
L 234.835007 130.584509 
L 239.958019 148.957207 
L 244.164065 162.145755 
L 248.508002 172.94645 
L 253.137614 179.504938 
L 257.90145 188.984579 
L 263.094255 193.819316 
L 268.120989 199.37593 
L 273.277283 203.862358 
L 279.586671 208.369318 
L 283.971873 211.185916 
L 288.052305 213.679885 
L 293.2809 218.918615 
L 299.067055 222.210082 
L 305.2596 224.696248 
L 311.852431 226.832643 
L 321.821712 229.690764 
L 327.060187 230.487141 
L 332.839829 231.809413 
L 339.432612 232.671558 
L 359.000193 236.197566 
L 381.627666 238.662288 
L 388.891913 239.348154 
L 388.891913 239.348154 
" clip-path="url(#p98d5ba4ec2)" style="fill: none; stroke: #000000; stroke-width: 2.5; stroke-linecap: square"/>
   </g>
   <g id="patch_3">
    <path d="M 54 252 
L 54 34.56 
" style="fill: none; stroke: #000000; stroke-width: 2; stroke-linejoin: miter; stroke-linecap: square"/>
   </g>
   <g id="patch_4">
    <path d="M 388.8 252 
L 388.8 34.56 
" style="fill: none; stroke: #000000; stroke-width: 2; stroke-linejoin: miter; stroke-linecap: square"/>
   </g>
   <g id="patch_5">
    <path d="M 54 252 
L 388.8 252 
" style="fill: none; stroke: #000000; stroke-width: 2; stroke-linejoin: miter; stroke-linecap: square"/>
   </g>
   <g id="patch_6">
    <path d="M 54 34.56 
L 388.8 34.56 
" style="fill: none; stroke: #000000; stroke-width: 2; stroke-linejoin: miter; stroke-linecap: square"/>
   </g>
   <g id="legend_1">
    <g id="line2d_14">
     <path d="M 165.2875 55.5175 
L 181.2875 55.5175 
L 197.2875 55.5175 
" style="fill: none; stroke: #000000; stroke-width: 2.5; stroke-linecap: square"/>
    </g>
    <g id="text_15">
     <text style="font: 16px 'sans-serif'; text-anchor: start" x="210.0875" y="61.1175" transform="rotate(-0, 210.0875, 61.1175)">Calc. Absorbance, %</text>
    </g>
   </g>
  </g>
  <g id="axes_2">
   <g id="matplotlib.axis_3">
    <g id="ytick_8">
     <g id="line2d_15">
      <defs>
       <path id="m72c1cac8d1" d="M 0 0 
L 3.5 0 
" style="stroke: #000000; stroke-width: 0.8"/>
      </defs>
      <g>
       <use xlink:href="#m72c1cac8d1" x="388.8" y="252" style="stroke: #000000; stroke-width: 0.8"/>
      </g>
     </g>
     <g id="text_16">
      <text style="font: 16px 'sans-serif'; text-anchor: start" x="395.8" y="258.07875" transform="rotate(-0, 395.8, 258.07875)">0.0</text>
     </g>
    </g>
    <g id="ytick_9">
     <g id="line2d_16">
      <g>
       <use xlink:href="#m72c1cac8d1" x="388.8" y="210.582857" style="stroke: #000000; stroke-width: 0.8"/>
      </g>
     </g>
     <g id="text_17">
      <text style="font: 16px 'sans-serif'; text-anchor: start" x="395.8" y="216.661607" transform="rotate(-0, 395.8, 216.661607)">0.2</text>
     </g>
    </g>
    <g id="ytick_10">
     <g id="line2d_17">
      <g>
       <use xlink:href="#m72c1cac8d1" x="388.8" y="169.165714" style="stroke: #000000; stroke-width: 0.8"/>
      </g>
     </g>
     <g id="text_18">
      <text style="font: 16px 'sans-serif'; text-anchor: start" x="395.8" y="175.244464" transform="rotate(-0, 395.8, 175.244464)">0.4</text>
     </g>
    </g>
    <g id="ytick_11">
     <g id="line2d_18">
      <g>
       <use xlink:href="#m72c1cac8d1" x="388.8" y="127.748571" style="stroke: #000000; stroke-width: 0.8"/>
      </g>
     </g>
     <g id="text_19">
      <text style="font: 16px 'sans-serif'; text-anchor: start" x="395.8" y="133.827321" transform="rotate(-0, 395.8, 133.827321)">0.6</text>
     </g>
    </g>
    <g id="ytick_12">
     <g id="line2d_19">
      <g>
       <use xlink:href="#m72c1cac8d1" x="388.8" y="86.331429" style="stroke: #000000; stroke-width: 0.8"/>
      </g>
     </g>
     <g id="text_20">
      <text style="font: 16px 'sans-serif'; text-anchor: start" x="395.8" y="92.410179" transform="rotate(-0, 395.8, 92.410179)">0.8</text>
     </g>
    </g>
    <g id="ytick_13">
     <g id="line2d_20">
      <g>
       <use xlink:href="#m72c1cac8d1" x="388.8" y="44.914286" style="stroke: #000000; stroke-width: 0.8"/>
      </g>
     </g>
     <g id="text_21">
      <text style="font: 16px 'sans-serif'; text-anchor: start" x="395.8" y="50.993036" transform="rotate(-0, 395.8, 50.993036)">1.0</text>
     </g>
    </g>
   </g>
   <g id="line2d_21">
    <path d="M 259.68392 250.29222 
L 259.832361 249.000971 
L 259.980787 248.80659 
L 260.129198 249.709075 
L 260.277594 248.417827 
L 260.425975 250.431064 
L 260.574341 249.139815 
L 260.722692 249.542463 
L 260.871028 248.001295 
L 261.167654 249.584116 
L 261.315945 249.486925 
L 261.46422 248.667746 
L 261.612481 249.695191 
L 261.760726 249.750728 
L 261.908956 248.570555 
L 262.057171 250.361642 
L 262.205371 248.417827 
L 262.501726 250.431064 
L 262.798021 249.514694 
L 262.946146 249.542463 
L 263.094255 249.209237 
L 263.242349 250.333873 
L 263.390429 249.764613 
L 263.538493 249.931226 
L 263.686542 248.889896 
L 263.834576 249.278659 
L 263.982595 249.167584 
L 264.130599 248.695515 
L 264.278588 249.611884 
L 264.426562 249.056509 
L 264.57452 249.084278 
L 264.722464 249.750728 
L 265.018305 249.000971 
L 265.166203 249.167584 
L 265.461954 248.292867 
L 265.609807 249.736844 
L 265.905467 248.084601 
L 266.201066 250.29222 
L 266.348844 248.876012 
L 266.496606 249.000971 
L 266.644352 250.014532 
L 266.792084 249.681306 
L 266.939801 249.070393 
L 267.087503 250.028416 
L 267.235189 248.362289 
L 267.38286 249.1537 
L 267.530516 248.348405 
L 267.825783 249.625769 
L 267.973394 248.431711 
L 268.120989 249.334197 
L 268.268569 249.320312 
L 268.416135 250.431064 
L 268.563684 248.515017 
L 268.71122 248.778821 
L 268.85874 249.334197 
L 269.006244 249.334197 
L 269.153733 249.750728 
L 269.301208 249.125931 
L 269.596111 250.056185 
L 269.890954 246.62674 
L 270.038353 249.320312 
L 270.185736 249.000971 
L 270.480457 249.861804 
L 270.627795 248.876012 
L 271.069718 249.764613 
L 271.216995 248.709399 
L 271.364257 249.389734 
L 271.511504 249.320312 
L 271.658736 248.959318 
L 271.805952 249.167584 
L 271.953154 248.751052 
L 272.247511 249.223121 
L 272.541807 248.834359 
L 272.688933 249.181468 
L 272.836043 249.1537 
L 273.130218 250.278335 
L 273.277283 249.306428 
L 273.424332 249.348081 
L 273.718385 249.94511 
L 274.012378 249.348081 
L 274.30631 249.792382 
L 274.453253 249.056509 
L 274.60018 250.264451 
L 274.747093 248.68163 
L 275.040873 249.348081 
L 275.18774 248.778821 
L 275.334592 249.806266 
L 275.62825 249.556347 
L 275.775056 248.265098 
L 275.921847 249.334197 
L 276.068623 249.348081 
L 276.215384 250.070069 
L 276.362129 249.889572 
L 276.508858 250.000647 
L 276.655574 249.778497 
L 276.802273 249.82015 
L 276.948957 248.709399 
L 277.095626 248.917665 
L 277.24228 250.139491 
L 277.38892 249.389734 
L 277.535543 249.972879 
L 277.828744 248.431711 
L 277.975322 249.847919 
L 278.121885 249.917341 
L 278.268432 249.431387 
L 278.414964 248.556671 
L 278.707982 249.903457 
L 278.854468 249.348081 
L 279.00094 250.16726 
L 279.147395 248.667746 
L 279.293836 248.889896 
L 279.440261 249.653538 
L 279.586671 248.848243 
L 279.733066 250.056185 
L 279.879446 248.889896 
L 280.025809 249.972879 
L 280.172159 249.861804 
L 280.318492 249.431387 
L 280.464811 249.667422 
L 280.611114 248.917665 
L 280.757402 249.792382 
L 280.903675 249.098162 
L 281.049932 249.473041 
L 281.196175 248.917665 
L 281.342401 247.709723 
L 281.488613 249.847919 
L 281.63481 249.223121 
L 281.78099 249.320312 
L 281.927156 249.875688 
L 282.073306 247.723607 
L 282.219442 249.681306 
L 282.365562 249.112046 
L 282.511667 249.223121 
L 282.657756 248.917665 
L 282.80383 249.056509 
L 282.949889 250.014532 
L 283.095932 249.02874 
L 283.241961 248.917665 
L 283.387973 248.987087 
L 283.533971 249.584116 
L 283.679954 247.987411 
L 283.971873 249.653538 
L 284.117809 249.806266 
L 284.26373 249.570231 
L 284.409635 248.751052 
L 284.555526 248.68163 
L 284.701402 247.307075 
L 284.847262 249.598 
L 284.993106 249.514694 
L 285.28475 248.403942 
L 285.430549 249.264775 
L 285.576331 248.084601 
L 285.7221 249.681306 
L 285.867853 247.917989 
L 286.01359 248.90378 
L 286.159312 248.889896 
L 286.305019 249.570231 
L 286.45071 248.042948 
L 286.596387 249.875688 
L 286.742047 248.292867 
L 286.887693 249.000971 
L 287.033323 247.987411 
L 287.178938 249.056509 
L 287.324537 247.945757 
L 287.470122 249.014856 
L 287.61569 248.11237 
L 287.761244 248.751052 
L 287.906782 248.862127 
L 288.197813 247.848567 
L 288.343304 247.779145 
L 288.488782 248.042948 
L 288.779689 247.334844 
L 288.92512 247.570879 
L 289.36132 246.890544 
L 289.50669 247.084925 
L 289.652043 247.654185 
L 289.797383 247.584763 
L 290.233306 246.62674 
L 290.378584 247.001619 
L 290.669092 245.988058 
L 290.959539 246.932197 
L 291.10474 245.474336 
L 291.249924 246.237977 
L 291.395094 245.14111 
L 291.540248 244.988382 
L 291.685388 243.919284 
L 291.830511 244.766232 
L 291.975619 244.849538 
L 292.120712 244.266393 
L 292.265789 244.641272 
L 292.410851 244.377469 
L 292.70093 243.100104 
L 292.990946 243.43333 
L 293.2809 242.392 
L 293.425855 242.419769 
L 293.570794 242.891839 
L 293.860626 241.156289 
L 294.005519 239.670659 
L 294.150396 240.878602 
L 294.295258 240.725873 
L 294.440104 239.740081 
L 294.584936 240.059422 
L 294.874552 239.254128 
L 295.164106 238.268336 
L 295.30886 237.726844 
L 295.453599 236.727168 
L 295.598322 237.046509 
L 295.743031 235.422035 
L 295.887723 236.782706 
L 296.0324 235.644186 
L 296.177062 235.53311 
L 296.321708 234.061365 
L 296.466338 234.686163 
L 296.900139 231.937053 
L 297.044708 231.950937 
L 297.189261 231.631596 
L 297.333799 232.506313 
L 297.478322 231.367793 
L 297.62283 231.8954 
L 297.767322 229.923816 
L 297.911798 230.576382 
L 298.056259 228.757527 
L 298.200705 229.243481 
L 298.48955 228.160498 
L 298.633949 225.689076 
L 298.778333 225.911226 
L 298.922701 224.217331 
L 299.067055 224.633862 
L 299.211392 221.843099 
L 299.500021 222.967735 
L 299.644312 220.760117 
L 299.788588 221.218302 
L 299.932848 218.705227 
L 300.077093 219.718787 
L 300.221322 217.969354 
L 300.365536 218.330348 
L 300.509735 217.761088 
L 300.653918 216.497608 
L 300.942237 216.275458 
L 301.230495 213.387504 
L 301.374601 212.762707 
L 301.662766 210.457898 
L 301.806824 206.86184 
L 301.950869 208.541851 
L 302.23891 205.140175 
L 302.526889 202.335528 
L 302.670855 203.640661 
L 302.814806 203.057516 
L 303.102661 200.433366 
L 303.390454 199.947412 
L 303.534328 197.295494 
L 303.678186 198.184095 
L 304.541008 188.90932 
L 304.684758 187.867991 
L 304.972209 182.605806 
L 305.115912 182.036546 
L 305.403272 182.925147 
L 305.546928 181.675552 
L 305.690569 177.565772 
L 305.834195 177.260315 
L 306.121399 170.318119 
L 306.264978 167.166362 
L 306.408541 168.166038 
L 306.982639 162.098558 
L 307.269594 156.433726 
L 307.843319 148.366894 
L 307.986712 147.880941 
L 308.416797 141.133126 
L 308.560126 139.453114 
L 308.703442 139.522536 
L 309.276545 125.527069 
L 309.419782 125.346572 
L 309.563004 120.112156 
L 309.706209 119.223554 
L 309.8494 113.211612 
L 309.992575 116.23841 
L 310.135733 114.280711 
L 310.278877 109.615555 
L 310.422006 109.226792 
L 310.565118 109.185139 
L 310.851297 105.672387 
L 310.994362 104.311717 
L 311.280447 95.314631 
L 311.423466 95.43959 
L 311.56647 97.647208 
L 311.709458 92.773787 
L 311.852431 92.926515 
L 312.281255 89.802527 
L 312.424165 90.552284 
L 312.852802 78.264597 
L 312.99565 79.986261 
L 313.138482 79.972377 
L 313.566884 70.808678 
L 313.709655 67.643036 
L 313.852409 67.046007 
L 313.995147 63.519372 
L 314.137871 63.616562 
L 314.280578 58.382146 
L 314.42327 61.214563 
L 314.565946 61.256216 
L 314.708607 55.32758 
L 314.851252 57.646274 
L 314.993882 54.924933 
L 315.279093 57.16032 
L 315.564243 61.96432 
L 315.84933 54.88328 
L 316.134354 50.009858 
L 316.419317 51.939788 
L 316.561774 48.8158 
L 316.846643 47.20521 
L 316.989054 46.149997 
L 317.131449 47.427361 
L 317.273829 47.274632 
L 317.416192 46.691488 
L 317.558541 52.495164 
L 317.700873 52.717314 
L 318.127777 44.914286 
L 318.412302 49.73217 
L 318.554541 49.051835 
L 318.696764 45.872309 
L 318.838972 49.60721 
L 318.981163 48.649187 
L 319.123339 49.815476 
L 319.2655 48.565881 
L 319.407645 49.912667 
L 319.549774 57.785118 
L 319.691888 57.882308 
L 319.833986 53.217152 
L 319.976068 54.341788 
L 320.118134 51.301106 
L 320.260185 55.369233 
L 320.402221 56.007915 
L 320.54424 62.033742 
L 320.686244 61.061834 
L 320.828233 62.908458 
L 320.970206 68.517753 
L 321.112162 65.03277 
L 321.254103 65.602031 
L 321.396029 68.614944 
L 321.537939 66.962701 
L 321.821712 69.822886 
L 321.963576 70.53099 
L 322.105423 72.002735 
L 322.247254 77.292689 
L 322.389069 77.973024 
L 322.672654 85.928781 
L 323.097914 92.454446 
L 323.239636 92.260064 
L 323.523032 98.563578 
L 323.664707 100.354665 
L 324.089637 109.518364 
L 324.231249 108.310422 
L 324.372845 109.143485 
L 325.08059 121.236791 
L 325.222093 121.570017 
L 325.363578 121.472826 
L 326.212166 133.524479 
L 326.636248 136.940039 
L 327.20147 147.603253 
L 327.483986 150.616166 
L 327.625221 150.518975 
L 327.907643 156.628108 
L 328.04883 156.017195 
L 328.331158 162.056905 
L 328.472298 163.250963 
L 328.613422 163.334269 
L 328.895625 167.31909 
L 329.036702 170.873495 
L 329.177763 170.220928 
L 329.318809 171.151182 
L 329.741852 176.677171 
L 330.305688 181.967124 
L 330.446607 185.049459 
L 330.587511 183.952592 
L 330.728399 186.673933 
L 330.869272 186.965505 
L 331.010128 187.965182 
L 331.291794 192.852488 
L 331.432603 193.074638 
L 331.573397 193.546708 
L 331.995683 196.351355 
L 332.277128 200.336175 
L 332.55851 204.182152 
L 332.699177 204.071077 
L 332.980464 206.73688 
L 333.121084 205.279019 
L 333.261689 206.486961 
L 333.402277 209.735909 
L 333.542849 210.041366 
L 333.683406 208.819539 
L 333.964471 213.109817 
L 334.245475 215.886695 
L 334.385952 216.414302 
L 334.66686 218.260926 
L 334.80729 218.496961 
L 334.947705 219.982591 
L 335.088104 220.218626 
L 335.368854 223.856336 
L 335.509205 223.453689 
L 335.64954 223.828568 
L 336.35098 227.285781 
L 336.771654 228.79918 
L 337.052024 229.507284 
L 337.192185 229.354556 
L 337.752672 232.506313 
L 338.03282 231.701018 
L 338.172871 232.3397 
L 338.312906 232.270278 
L 338.452924 232.81177 
L 338.592927 234.255746 
L 338.732914 234.491781 
L 338.872886 233.922521 
L 339.152781 236.268983 
L 339.292704 235.963527 
L 339.432612 236.310636 
L 339.572504 236.074602 
L 339.85224 237.893457 
L 339.992084 236.879897 
L 340.271726 239.240243 
L 340.411523 237.921226 
L 340.551303 239.698428 
L 340.691068 239.087515 
L 340.830818 239.906694 
L 341.110269 239.573469 
L 341.24997 239.740081 
L 341.389656 241.961584 
L 341.529325 242.183734 
L 341.668979 240.267688 
L 341.808617 242.794648 
L 342.087845 242.072659 
L 342.506569 243.350023 
L 342.646112 243.377792 
L 342.785639 242.933492 
L 343.064644 244.266393 
L 343.204124 239.99 
L 343.483035 245.113341 
L 343.622465 244.863422 
L 343.761881 244.91896 
L 343.901281 244.69681 
L 344.040665 245.752023 
L 344.180033 244.252509 
L 344.319384 244.905075 
L 344.458721 245.016151 
L 344.737345 245.654833 
L 344.876633 245.515989 
L 345.015906 246.015827 
L 345.155162 245.93252 
L 345.294402 246.237977 
L 345.433627 247.140463 
L 345.572836 243.405561 
L 345.712028 247.043272 
L 345.851206 246.390705 
L 346.129511 246.62674 
L 346.268641 247.293191 
L 346.546851 246.196324 
L 346.685932 247.612532 
L 346.824998 247.654185 
L 346.964047 247.265422 
L 347.103081 247.237653 
L 347.242099 247.681954 
L 347.3811 247.640301 
L 347.659055 248.251214 
L 347.798009 247.598648 
L 347.936947 248.570555 
L 348.353665 248.070717 
L 348.492539 247.584763 
L 348.631397 248.931549 
L 348.77024 247.709723 
L 348.909065 248.431711 
L 349.047876 248.209561 
L 349.186671 248.320636 
L 349.325449 247.057156 
L 349.464212 248.501133 
L 349.741688 247.779145 
L 350.019102 249.000971 
L 350.157784 248.445596 
L 350.296451 248.931549 
L 350.435101 247.834682 
L 350.573735 249.361965 
L 350.712354 248.528902 
L 350.850957 248.612208 
L 350.989544 249.306428 
L 351.128115 248.751052 
L 351.266669 248.820474 
L 351.405208 249.237006 
L 351.543731 249.139815 
L 351.682238 248.820474 
L 352.097662 249.237006 
L 352.236105 249.014856 
L 352.374533 248.306752 
L 352.512943 249.639653 
L 352.92808 248.292867 
L 353.066427 249.1537 
L 353.204758 249.181468 
L 353.343073 249.084278 
L 353.481372 248.181792 
L 353.619655 249.209237 
L 353.757922 249.056509 
L 353.896173 249.736844 
L 354.172627 248.792705 
L 354.31083 248.973202 
L 354.449016 250.195029 
L 354.587187 249.181468 
L 354.725342 250.625445 
L 355.001604 248.876012 
L 355.139711 249.82015 
L 355.277802 249.986763 
L 355.415877 249.042624 
L 355.553935 249.584116 
L 355.691978 249.445272 
L 355.830004 249.084278 
L 355.968015 249.417503 
L 356.10601 248.584439 
L 356.243989 249.237006 
L 356.381951 247.917989 
L 356.519897 249.542463 
L 356.657828 249.320312 
L 356.795742 248.709399 
L 356.933641 248.626093 
L 357.071524 250.042301 
L 357.20939 249.556347 
L 357.34724 249.861804 
L 357.485075 249.417503 
L 357.760695 247.307075 
L 357.898481 249.500809 
L 358.036251 249.598 
L 358.174005 248.431711 
L 358.311744 249.792382 
L 358.449465 249.958994 
L 358.587171 248.889896 
L 358.862535 250.111723 
L 359.000193 248.848243 
L 359.137834 249.931226 
L 359.275459 249.861804 
L 359.413069 249.514694 
L 359.550663 250.333873 
L 359.68824 249.875688 
L 359.825801 246.890544 
L 359.963347 249.37585 
L 360.100876 249.014856 
L 360.375886 249.639653 
L 360.513367 249.056509 
L 360.650832 249.278659 
L 360.788281 250.070069 
L 360.925714 248.542786 
L 361.06313 248.487249 
L 361.200531 249.445272 
L 361.337915 249.278659 
L 361.475284 250.319989 
L 361.749972 248.751052 
L 361.887293 249.667422 
L 362.161884 249.167584 
L 362.299156 249.82015 
L 362.436413 249.570231 
L 362.573652 249.806266 
L 362.710876 248.834359 
L 362.848083 249.72296 
L 362.985274 249.473041 
L 363.12245 249.764613 
L 363.259609 249.486925 
L 363.396752 248.33452 
L 363.533879 249.834035 
L 363.67099 248.764937 
L 363.808085 249.417503 
L 363.945163 248.417827 
L 364.082226 249.361965 
L 364.219272 249.278659 
L 364.356302 248.417827 
L 364.493317 249.237006 
L 364.630314 249.264775 
L 364.767297 249.431387 
L 364.904263 249.02874 
L 365.041212 250.208913 
L 365.178146 248.931549 
L 365.315063 250.028416 
L 365.451965 249.223121 
L 365.725719 249.306428 
L 365.862572 250.444948 
L 365.999409 249.514694 
L 366.13623 250.528254 
L 366.273034 248.584439 
L 366.409822 249.542463 
L 366.546595 248.917665 
L 366.683351 249.903457 
L 366.82009 248.764937 
L 366.956814 249.486925 
L 367.093522 249.500809 
L 367.230214 249.875688 
L 367.503549 248.584439 
L 367.776818 250.000647 
L 367.913429 248.917665 
L 368.050024 249.125931 
L 368.186603 249.736844 
L 368.323165 249.570231 
L 368.459711 249.639653 
L 368.596241 249.181468 
L 368.732755 249.237006 
L 368.869252 250.125607 
L 369.005734 249.320312 
L 369.1422 249.181468 
L 369.278649 249.875688 
L 369.415082 249.042624 
L 369.824284 249.958994 
L 369.960653 249.056509 
L 370.097005 249.445272 
L 370.23334 249.237006 
L 370.505964 249.542463 
L 370.642252 248.278983 
L 370.778523 250.16726 
L 370.914778 249.348081 
L 371.051017 250.028416 
L 371.187239 249.334197 
L 371.323446 249.306428 
L 371.459637 249.139815 
L 371.595811 248.626093 
L 371.731968 249.292543 
L 371.86811 248.80659 
L 372.004236 250.208913 
L 372.140345 248.348405 
L 372.548576 250.569908 
L 372.820649 249.098162 
L 372.956661 250.056185 
L 373.092657 249.209237 
L 373.3646 249.528578 
L 373.3646 249.528578 
" clip-path="url(#p98d5ba4ec2)" style="fill: none; stroke: #ff0000; stroke-width: 2.5; stroke-linecap: square"/>
   </g>
   <g id="line2d_22">
    <path d="M 317.655 252 
L 317.655 34.56 
" clip-path="url(#p98d5ba4ec2)" style="fill: none; stroke-dasharray: 9.25,4; stroke-dashoffset: 0; stroke: #ffc0cb; stroke-width: 2.5"/>
   </g>
   <g id="patch_7">
    <path d="M 54 252 
L 54 34.56 
" style="fill: none; stroke: #000000; stroke-width: 2; stroke-linejoin: miter; stroke-linecap: square"/>
   </g>
   <g id="patch_8">
    <path d="M 388.8 252 
L 388.8 34.56 
" style="fill: none; stroke: #000000; stroke-width: 2; stroke-linejoin: miter; stroke-linecap: square"/>
   </g>
   <g id="patch_9">
    <path d="M 54 252 
L 388.8 252 
" style="fill: none; stroke: #000000; stroke-width: 2; stroke-linejoin: miter; stroke-linecap: square"/>
   </g>
   <g id="patch_10">
    <path d="M 54 34.56 
L 388.8 34.56 
" style="fill: none; stroke: #000000; stroke-width: 2; stroke-linejoin: miter; stroke-linecap: square"/>
   </g>
   <g id="text_22">
    <text style="font: 20px 'sans-serif'; text-anchor: middle" x="221.4" y="28.56" transform="rotate(-0, 221.4, 28.56)">Estimated Carrier Density</text>
   </g>
   <g id="legend_2">
    <g id="line2d_23">
     <path d="M 68.4 55.5175 
L 84.4 55.5175 
L 100.4 55.5175 
" style="fill: none; stroke: #ff0000; stroke-width: 2.5; stroke-linecap: square"/>
    </g>
    <g id="text_23">
     <text style="font: 16px 'sans-serif'; text-anchor: start" x="113.2" y="61.1175" transform="rotate(-0, 113.2, 61.1175)">Norm. Laser Spectrum</text>
    </g>
   </g>
  </g>
 </g>
 <defs>
  <clipPath id="p98d5ba4ec2">
   <rect x="54" y="34.56" width="334.8" height="217.44"/>
  </clipPath>
 </defs>
</svg>
