<?xml version="1.0" encoding="utf-8" standalone="no"?>
<!DOCTYPE svg PUBLIC "-//W3C//DTD SVG 1.1//EN"
  "http://www.w3.org/Graphics/SVG/1.1/DTD/svg11.dtd">
<svg xmlns:xlink="http://www.w3.org/1999/xlink" width="432pt" height="288pt" viewBox="0 0 432 288" xmlns="http://www.w3.org/2000/svg" version="1.1">
 <metadata>
  <rdf:RDF xmlns:dc="http://purl.org/dc/elements/1.1/" xmlns:cc="http://creativecommons.org/ns#" xmlns:rdf="http://www.w3.org/1999/02/22-rdf-syntax-ns#">
   <cc:Work>
    <dc:type rdf:resource="http://purl.org/dc/dcmitype/StillImage"/>
    <dc:date>2025-01-14T18:04:08.740925</dc:date>
    <dc:format>image/svg+xml</dc:format>
    <dc:creator>
     <cc:Agent>
      <dc:title>Matplotlib v3.5.2, https://matplotlib.org/</dc:title>
     </cc:Agent>
    </dc:creator>
   </cc:Work>
  </rdf:RDF>
 </metadata>
 <defs>
  <style type="text/css">*{stroke-linejoin: round; stroke-linecap: butt}</style>
 </defs>
 <g id="figure_1">
  <g id="patch_1">
   <path d="M 0 288 
L 432 288 
L 432 0 
L 0 0 
z
" style="fill: #ffffff"/>
  </g>
  <g id="axes_1">
   <g id="patch_2">
    <path d="M 54 252 
L 388.8 252 
L 388.8 34.56 
L 54 34.56 
z
" style="fill: #ffffff"/>
   </g>
   <g id="matplotlib.axis_1">
    <g id="xtick_1">
     <g id="line2d_1">
      <defs>
       <path id="m2e247d6c11" d="M 0 0 
L 0 3.5 
" style="stroke: #000000; stroke-width: 0.8"/>
      </defs>
      <g>
       <use xlink:href="#m2e247d6c11" x="54" y="252" style="stroke: #000000; stroke-width: 0.8"/>
      </g>
     </g>
    </g>
    <g id="xtick_2">
     <g id="line2d_2">
      <g>
       <use xlink:href="#m2e247d6c11" x="79.753846" y="252" style="stroke: #000000; stroke-width: 0.8"/>
      </g>
     </g>
     <g id="text_1">
      <text style="font: 18px 'sans-serif'; text-anchor: middle" x="79.753846" y="272.677188" transform="rotate(-0, 79.753846, 272.677188)">400</text>
     </g>
    </g>
    <g id="xtick_3">
     <g id="line2d_3">
      <g>
       <use xlink:href="#m2e247d6c11" x="105.507692" y="252" style="stroke: #000000; stroke-width: 0.8"/>
      </g>
     </g>
    </g>
    <g id="xtick_4">
     <g id="line2d_4">
      <g>
       <use xlink:href="#m2e247d6c11" x="131.261538" y="252" style="stroke: #000000; stroke-width: 0.8"/>
      </g>
     </g>
     <g id="text_2">
      <text style="font: 18px 'sans-serif'; text-anchor: middle" x="131.261538" y="272.677188" transform="rotate(-0, 131.261538, 272.677188)">500</text>
     </g>
    </g>
    <g id="xtick_5">
     <g id="line2d_5">
      <g>
       <use xlink:href="#m2e247d6c11" x="157.015385" y="252" style="stroke: #000000; stroke-width: 0.8"/>
      </g>
     </g>
    </g>
    <g id="xtick_6">
     <g id="line2d_6">
      <g>
       <use xlink:href="#m2e247d6c11" x="182.769231" y="252" style="stroke: #000000; stroke-width: 0.8"/>
      </g>
     </g>
     <g id="text_3">
      <text style="font: 18px 'sans-serif'; text-anchor: middle" x="182.769231" y="272.677188" transform="rotate(-0, 182.769231, 272.677188)">600</text>
     </g>
    </g>
    <g id="xtick_7">
     <g id="line2d_7">
      <g>
       <use xlink:href="#m2e247d6c11" x="208.523077" y="252" style="stroke: #000000; stroke-width: 0.8"/>
      </g>
     </g>
    </g>
    <g id="xtick_8">
     <g id="line2d_8">
      <g>
       <use xlink:href="#m2e247d6c11" x="234.276923" y="252" style="stroke: #000000; stroke-width: 0.8"/>
      </g>
     </g>
     <g id="text_4">
      <text style="font: 18px 'sans-serif'; text-anchor: middle" x="234.276923" y="272.677188" transform="rotate(-0, 234.276923, 272.677188)">700</text>
     </g>
    </g>
    <g id="xtick_9">
     <g id="line2d_9">
      <g>
       <use xlink:href="#m2e247d6c11" x="260.030769" y="252" style="stroke: #000000; stroke-width: 0.8"/>
      </g>
     </g>
    </g>
    <g id="xtick_10">
     <g id="line2d_10">
      <g>
       <use xlink:href="#m2e247d6c11" x="285.784615" y="252" style="stroke: #000000; stroke-width: 0.8"/>
      </g>
     </g>
     <g id="text_5">
      <text style="font: 18px 'sans-serif'; text-anchor: middle" x="285.784615" y="272.677188" transform="rotate(-0, 285.784615, 272.677188)">800</text>
     </g>
    </g>
    <g id="xtick_11">
     <g id="line2d_11">
      <g>
       <use xlink:href="#m2e247d6c11" x="311.538462" y="252" style="stroke: #000000; stroke-width: 0.8"/>
      </g>
     </g>
    </g>
    <g id="xtick_12">
     <g id="line2d_12">
      <g>
       <use xlink:href="#m2e247d6c11" x="337.292308" y="252" style="stroke: #000000; stroke-width: 0.8"/>
      </g>
     </g>
     <g id="text_6">
      <text style="font: 18px 'sans-serif'; text-anchor: middle" x="337.292308" y="272.677188" transform="rotate(-0, 337.292308, 272.677188)">900</text>
     </g>
    </g>
    <g id="xtick_13">
     <g id="line2d_13">
      <g>
       <use xlink:href="#m2e247d6c11" x="363.046154" y="252" style="stroke: #000000; stroke-width: 0.8"/>
      </g>
     </g>
    </g>
    <g id="text_7">
     <!-- $\lambda$, nm -->
     <g transform="translate(193 295.6175)">
      <text>
       <tspan style="font: oblique 20px 'DejaVu Sans'" x="0" y="-0.796875">λ</tspan>
       <tspan style="font: 20px 'DejaVu Sans'" x="11.835938 18.193359 24.550781 37.226562" y="-0.796875">, nm</tspan>
      </text>
     </g>
    </g>
   </g>
   <g id="matplotlib.axis_2">
    <g id="ytick_1">
     <g id="line2d_14">
      <defs>
       <path id="mb310accc47" d="M 0 0 
L -3.5 0 
" style="stroke: #000000; stroke-width: 0.8"/>
      </defs>
      <g>
       <use xlink:href="#mb310accc47" x="54" y="240.876286" style="stroke: #000000; stroke-width: 0.8"/>
      </g>
     </g>
     <g id="text_8">
      <text style="font: 18px 'sans-serif'; text-anchor: end" x="47" y="247.71488" transform="rotate(-0, 47, 247.71488)">0.0</text>
     </g>
    </g>
    <g id="ytick_2">
     <g id="line2d_15">
      <g>
       <use xlink:href="#mb310accc47" x="54" y="201.589756" style="stroke: #000000; stroke-width: 0.8"/>
      </g>
     </g>
     <g id="text_9">
      <text style="font: 18px 'sans-serif'; text-anchor: end" x="47" y="208.42835" transform="rotate(-0, 47, 208.42835)">0.2</text>
     </g>
    </g>
    <g id="ytick_3">
     <g id="line2d_16">
      <g>
       <use xlink:href="#mb310accc47" x="54" y="162.303226" style="stroke: #000000; stroke-width: 0.8"/>
      </g>
     </g>
     <g id="text_10">
      <text style="font: 18px 'sans-serif'; text-anchor: end" x="47" y="169.14182" transform="rotate(-0, 47, 169.14182)">0.4</text>
     </g>
    </g>
    <g id="ytick_4">
     <g id="line2d_17">
      <g>
       <use xlink:href="#mb310accc47" x="54" y="123.016696" style="stroke: #000000; stroke-width: 0.8"/>
      </g>
     </g>
     <g id="text_11">
      <text style="font: 18px 'sans-serif'; text-anchor: end" x="47" y="129.85529" transform="rotate(-0, 47, 129.85529)">0.6</text>
     </g>
    </g>
    <g id="ytick_5">
     <g id="line2d_18">
      <g>
       <use xlink:href="#mb310accc47" x="54" y="83.730166" style="stroke: #000000; stroke-width: 0.8"/>
      </g>
     </g>
     <g id="text_12">
      <text style="font: 18px 'sans-serif'; text-anchor: end" x="47" y="90.56876" transform="rotate(-0, 47, 90.56876)">0.8</text>
     </g>
    </g>
    <g id="ytick_6">
     <g id="line2d_19">
      <g>
       <use xlink:href="#mb310accc47" x="54" y="44.443636" style="stroke: #000000; stroke-width: 0.8"/>
      </g>
     </g>
     <g id="text_13">
      <text style="font: 18px 'sans-serif'; text-anchor: end" x="47" y="51.28223" transform="rotate(-0, 47, 51.28223)">1.0</text>
     </g>
    </g>
    <g id="text_14">
     <text style="font: 22px 'sans-serif'; text-anchor: middle" x="9.799063" y="143.28" transform="rotate(-90, 9.799063, 143.28)">Int., arb. units.</text>
    </g>
   </g>
   <g id="line2d_20">
    <path d="M 318.342344 241.315853 
L 318.432771 240.608736 
L 318.523188 241.769476 
L 318.613596 240.248506 
L 318.794384 240.888914 
L 318.884763 240.341899 
L 318.975133 241.329195 
L 319.065494 241.262486 
L 319.155846 241.089042 
L 319.246189 239.848251 
L 319.426845 240.888914 
L 319.517159 241.58269 
L 319.607464 241.409246 
L 319.697759 241.515981 
L 319.788045 241.302511 
L 319.878322 241.342537 
L 319.968589 240.275189 
L 320.058847 240.475317 
L 320.149096 241.649399 
L 320.239335 240.92894 
L 320.329565 241.489297 
L 320.509996 240.008353 
L 320.690391 241.43593 
L 320.870747 240.128429 
L 321.051066 241.422588 
L 321.141211 240.888914 
L 321.231348 241.676083 
L 321.321474 240.235164 
L 321.411591 240.448633 
L 321.501699 241.182435 
L 321.591798 240.408608 
L 321.681887 241.569348 
L 321.771967 240.448633 
L 321.862037 241.489297 
L 321.952098 241.382562 
L 322.042149 240.968965 
L 322.132191 241.195777 
L 322.222224 240.475317 
L 322.312247 241.315853 
L 322.402262 240.648761 
L 322.492266 241.008991 
L 322.672247 239.314577 
L 322.762224 241.36922 
L 322.852191 240.768838 
L 322.942148 240.862231 
L 323.032096 241.395904 
L 323.122035 239.327919 
L 323.211964 241.209118 
L 323.301884 240.662103 
L 323.391795 240.768838 
L 323.481696 240.475317 
L 323.571588 240.608736 
L 323.66147 241.529323 
L 323.841207 240.475317 
L 323.93106 240.542026 
L 324.020905 241.115726 
L 324.110741 239.581414 
L 324.38019 241.329195 
L 324.469987 241.102384 
L 324.739324 238.927663 
L 324.829084 241.129067 
L 324.918835 241.049016 
L 325.098308 239.981669 
L 325.18803 240.808863 
L 325.277742 239.674807 
L 325.367446 241.209118 
L 325.45714 239.514704 
L 325.546825 240.461975 
L 325.6365 240.448633 
L 325.726165 241.102384 
L 325.815822 239.634781 
L 325.905469 241.395904 
L 325.995106 239.874934 
L 326.084734 240.555368 
L 326.174353 239.581414 
L 326.263962 240.608736 
L 326.353561 239.541388 
L 326.443152 240.56871 
L 326.532732 239.70149 
L 326.711866 240.42195 
L 326.890962 239.447995 
L 326.980495 239.381286 
L 327.070019 239.634781 
L 327.24904 238.954347 
L 327.338535 239.181158 
L 327.606966 238.527408 
L 327.696425 238.714194 
L 327.785873 239.261209 
L 327.875312 239.1945 
L 328.143573 238.273913 
L 328.232975 238.634143 
L 328.411749 237.660188 
L 328.590485 238.567434 
L 328.67984 237.16654 
L 328.769184 237.900342 
L 329.037162 235.672254 
L 329.215766 236.566157 
L 329.305054 236.0058 
L 329.394332 236.36603 
L 329.483601 236.112535 
L 329.662111 234.885085 
L 329.840582 235.20529 
L 330.019016 234.204651 
L 330.108219 234.231335 
L 330.197412 234.684958 
L 330.37577 233.017228 
L 330.464935 231.58965 
L 330.55409 232.750391 
L 330.643236 232.60363 
L 330.732372 231.65636 
L 330.821499 231.963222 
L 330.999724 231.189395 
L 331.356061 228.76118 
L 331.445121 229.068042 
L 331.534173 227.507047 
L 331.623214 228.814547 
L 331.890282 226.199546 
L 331.979285 226.799929 
L 332.246239 224.158245 
L 332.335205 224.171586 
L 332.424161 223.864724 
L 332.513107 224.70526 
L 332.602045 223.611229 
L 332.690972 224.118219 
L 332.77989 222.223678 
L 332.868799 222.850744 
L 332.957698 221.102963 
L 333.046588 221.569927 
L 333.224338 220.529264 
L 333.313199 218.154416 
L 333.402051 218.367885 
L 333.668549 214.458726 
L 333.846166 215.539415 
L 334.112522 211.443469 
L 334.201288 212.417424 
L 334.290044 210.736352 
L 334.378792 211.08324 
L 334.733684 209.108647 
L 334.911074 206.333544 
L 335.088425 204.559079 
L 335.177087 203.518415 
L 335.265738 200.062878 
L 335.354381 201.677241 
L 335.708855 195.713438 
L 335.797449 196.967571 
L 335.886034 196.407214 
L 336.063176 193.885606 
L 336.24028 193.418641 
L 336.328817 190.870349 
L 336.417345 191.724227 
L 337.3021 176.207665 
L 337.478937 177.061543 
L 337.56734 175.860778 
L 337.920861 164.947151 
L 338.009217 161.918553 
L 338.097564 162.879166 
L 338.450855 157.048781 
L 338.715722 149.323854 
L 338.803993 148.243165 
L 338.980504 143.853699 
L 339.068746 143.386735 
L 339.421616 135.288237 
L 339.50981 135.354946 
L 340.215015 110.072156 
L 340.303123 112.980677 
L 340.391221 111.099478 
L 340.567388 106.243047 
L 340.655457 106.203022 
L 341.09566 92.874522 
L 341.183672 92.994598 
L 341.271674 95.115951 
L 341.359667 90.432965 
L 341.44765 90.579725 
L 341.711541 87.577811 
L 341.799486 88.29827 
L 342.063263 76.49074 
L 342.151169 78.145129 
L 342.239066 78.131787 
L 342.941894 57.385223 
L 343.117505 60.146984 
L 343.205297 54.450018 
L 343.293078 56.678105 
L 343.38085 54.063104 
L 343.556365 56.211141 
L 343.731842 60.827418 
L 343.994985 51.554838 
L 344.08268 49.340092 
L 344.258041 51.194608 
L 344.433364 47.538944 
L 344.608648 45.63106 
L 344.696276 46.85851 
L 344.783894 46.711749 
L 344.871503 46.151392 
L 345.046691 51.941751 
L 345.309401 44.443636 
L 345.484493 49.073255 
L 345.572025 48.419505 
L 345.659547 45.364223 
L 345.747059 48.953179 
L 345.834562 48.032592 
L 345.922055 49.153306 
L 346.009539 47.952541 
L 346.097012 49.246699 
L 346.271931 56.904917 
L 346.359376 52.422058 
L 346.446811 53.502747 
L 346.534237 50.580884 
L 346.796456 60.894127 
L 346.883842 59.960198 
L 346.97122 61.734663 
L 347.058588 67.124767 
L 347.145946 63.775965 
L 347.233294 64.322981 
L 347.320633 67.21816 
L 347.407963 65.630481 
L 347.931735 76.210562 
L 348.193491 85.870055 
L 348.280724 86.737275 
L 348.629558 95.996513 
L 348.891083 103.134398 
L 348.978238 106.523226 
L 349.065384 105.362486 
L 349.15252 106.162996 
L 349.675134 118.103945 
L 349.762202 118.010552 
L 350.371411 130.618592 
L 350.545383 132.873363 
L 350.980145 144.560817 
L 351.50154 154.540514 
L 351.675261 158.156154 
L 351.762106 158.236205 
L 352.543283 172.25848 
L 352.716771 174.806772 
L 353.756884 189.949762 
L 353.843497 189.963104 
L 354.103278 195.953591 
L 354.362972 199.022215 
L 354.449516 199.942802 
L 354.536052 198.541908 
L 354.622578 199.702649 
L 354.7956 203.11816 
L 354.882096 201.944078 
L 355.141527 207.921223 
L 355.832915 214.792272 
L 355.919295 216.393293 
L 356.005665 216.006379 
L 356.178375 217.153778 
L 356.437368 219.021636 
L 356.782556 221.142988 
L 356.955092 221.823422 
L 357.041345 221.676662 
L 357.38626 224.70526 
L 357.558659 223.931433 
L 357.989486 226.613144 
L 358.075622 226.066128 
L 358.247865 228.320899 
L 358.333972 228.027379 
L 358.420069 228.360925 
L 358.506156 228.134113 
L 358.678302 229.881895 
L 358.76436 228.90794 
L 358.936447 231.176053 
L 359.022475 229.908578 
L 359.108494 231.616334 
L 359.194503 231.029293 
L 359.280503 231.816462 
L 359.366493 231.602992 
L 359.452473 231.496258 
L 359.538443 231.65636 
L 359.710354 234.004524 
L 359.796295 232.16335 
L 359.882226 234.591565 
L 359.968147 234.164626 
L 360.054059 233.897789 
L 360.311735 235.125239 
L 360.397607 235.151922 
L 360.48347 234.724983 
L 360.655166 236.0058 
L 360.740999 231.896513 
L 360.912637 236.819652 
L 361.170019 236.419397 
L 361.255794 237.433377 
L 361.341559 235.992458 
L 361.598794 237.206566 
L 361.68452 237.339984 
L 361.770236 237.206566 
L 361.855942 237.686872 
L 361.941638 237.606821 
L 362.027324 237.900342 
L 362.113001 238.767561 
L 362.198668 235.178606 
L 362.284325 238.674168 
L 362.369973 238.047102 
L 362.541238 238.273913 
L 362.626856 238.914322 
L 362.798062 237.860316 
L 362.96923 239.261209 
L 363.140357 238.860954 
L 363.225907 239.287893 
L 363.311446 239.247868 
L 363.482496 239.834909 
L 363.568006 239.207842 
L 363.653506 240.141771 
L 363.738996 239.981669 
L 363.909948 239.661465 
L 363.995409 239.1945 
L 364.08086 240.488659 
L 364.166301 239.314577 
L 364.251733 240.008353 
L 364.337154 239.794883 
L 364.422567 239.901618 
L 364.507968 238.68751 
L 364.593361 240.075062 
L 364.764116 239.381286 
L 364.934832 240.555368 
L 365.020175 240.021694 
L 365.105508 240.488659 
L 365.190831 239.434653 
L 365.276145 240.902256 
L 365.361449 240.101746 
L 365.446743 240.181797 
L 365.532027 240.848889 
L 365.617301 240.315215 
L 365.702566 240.381924 
L 365.78782 240.782179 
L 365.873065 240.688787 
L 365.9583 240.381924 
L 366.213946 240.782179 
L 366.299142 240.56871 
L 366.384328 239.888276 
L 366.469503 241.169093 
L 366.724972 239.874934 
L 366.895236 240.728812 
L 366.980353 240.635419 
L 367.06546 239.768199 
L 367.150557 240.755496 
L 367.235644 240.608736 
L 367.320722 241.262486 
L 367.490847 240.355241 
L 367.575895 240.528684 
L 367.660933 241.702767 
L 367.745961 240.728812 
L 367.83098 242.116364 
L 368.000987 240.435292 
L 368.170955 241.502639 
L 368.255924 240.595394 
L 368.340883 241.115726 
L 368.425833 240.982307 
L 368.510772 240.635419 
L 368.595702 240.955623 
L 368.680622 240.155113 
L 368.765531 240.782179 
L 368.850432 239.514704 
L 368.935321 241.0757 
L 369.020202 240.862231 
L 369.189933 240.195138 
L 369.274784 241.556006 
L 369.359625 241.089042 
L 369.444455 241.382562 
L 369.529277 240.955623 
L 369.698889 238.927663 
L 369.868462 241.129067 
L 369.953234 240.008353 
L 370.122748 241.475955 
L 370.20749 240.448633 
L 370.376944 241.622715 
L 370.461657 240.408608 
L 370.546359 241.449272 
L 370.631052 241.382562 
L 370.715735 241.049016 
L 370.800408 241.836185 
L 370.885071 241.395904 
L 370.969724 238.527408 
L 371.054367 240.915598 
L 371.139001 240.56871 
L 371.308238 241.169093 
L 371.392841 240.608736 
L 371.477435 240.822205 
L 371.562019 241.58269 
L 371.731157 240.06172 
L 371.98479 241.822843 
L 372.153829 240.315215 
L 372.238334 241.195777 
L 372.407313 240.71547 
L 372.491788 241.342537 
L 372.576254 241.102384 
L 372.660709 241.329195 
L 372.745154 240.395266 
L 372.829589 241.249144 
L 372.914015 241.008991 
L 372.99843 241.289169 
L 373.082836 241.022333 
L 373.167232 239.91496 
L 373.251618 241.355879 
L 373.335994 240.328557 
L 373.42036 240.955623 
L 373.504716 239.995011 
L 373.589062 240.902256 
L 373.673398 240.822205 
L 373.757724 239.995011 
L 373.926347 240.808863 
L 374.010644 240.968965 
L 374.094931 240.582052 
L 374.179207 241.716108 
L 374.263474 240.488659 
L 374.347731 241.542664 
L 374.516215 240.755496 
L 374.600442 240.848889 
L 374.684659 241.94292 
L 374.768867 241.049016 
L 374.853064 242.022971 
L 374.937252 240.155113 
L 375.021429 241.0757 
L 375.021429 241.0757 
" clip-path="url(#p6bce3ed4fd)" style="fill: none; stroke: #000000; stroke-width: 2.5; stroke-linecap: square"/>
   </g>
   <g id="line2d_21">
    <path d="M 262.047818 240.014648 
L 262.239642 240.661981 
L 262.43143 240.176481 
L 262.527311 240.031683 
L 262.719046 240.287209 
L 262.814901 240.38942 
L 262.910747 239.793193 
L 263.102411 240.466077 
L 263.294041 239.690982 
L 263.389842 239.972061 
L 263.581419 239.852815 
L 263.677194 240.074271 
L 263.868717 239.605807 
L 263.964466 240.040201 
L 264.060205 239.90392 
L 264.155936 240.133894 
L 264.443076 239.350281 
L 264.634458 239.972061 
L 265.017116 239.759122 
L 265.112758 240.150929 
L 265.304016 239.784675 
L 265.399632 239.793193 
L 265.495239 240.074271 
L 265.590837 239.997613 
L 265.686426 240.270174 
L 265.782006 239.818745 
L 265.973141 240.219069 
L 266.068695 240.397937 
L 266.259776 240.244622 
L 266.355303 240.176481 
L 266.546331 240.466077 
L 266.737323 240.610875 
L 266.832806 240.900472 
L 266.92828 240.517183 
L 267.023746 240.704568 
L 267.59635 239.622842 
L 267.691753 239.759122 
L 267.787148 239.682465 
L 267.97791 239.11179 
L 268.263986 239.052167 
L 268.359327 238.873299 
L 268.549982 239.026615 
L 268.645297 238.881817 
L 268.835898 238.3878 
L 268.931186 238.856264 
L 269.121735 238.123757 
L 269.312248 238.28559 
L 269.407492 238.123757 
L 269.597951 238.35373 
L 269.883575 237.859713 
L 270.073946 237.910818 
L 270.169117 237.927853 
L 270.359435 238.277072 
L 270.549717 237.825643 
L 270.644845 237.885266 
L 270.739963 237.73195 
L 270.835073 237.834161 
L 270.930174 237.425319 
L 271.025266 237.748985 
L 271.12035 237.365696 
L 271.310489 237.5616 
L 271.500593 237.093136 
L 271.690661 237.365696 
L 271.880694 236.93982 
L 272.070691 236.573566 
L 272.165676 236.820575 
L 272.260652 236.445803 
L 272.355619 236.590601 
L 272.450578 235.858094 
L 272.640468 236.207312 
L 272.830322 235.798471 
L 273.02014 235.134104 
L 273.209923 234.665639 
L 273.494531 233.830921 
L 273.684225 233.31987 
L 273.779058 232.331836 
L 273.873882 232.604397 
L 274.063505 232.135933 
L 274.253091 230.670918 
L 274.347871 230.500567 
L 275.105788 225.611505 
L 275.389859 224.112419 
L 275.579196 221.642336 
L 275.673851 221.548643 
L 275.768496 221.207942 
L 275.957761 218.047938 
L 276.336182 214.964592 
L 276.52534 212.97149 
L 276.809009 207.409543 
L 276.998076 204.930941 
L 277.092597 204.45396 
L 277.376104 198.415031 
L 277.942876 191.79691 
L 278.226142 185.161754 
L 278.41494 182.265793 
L 278.79243 174.225245 
L 279.075453 168.331114 
L 279.452691 161.925931 
L 279.546978 157.51385 
L 279.641256 157.718271 
L 279.829785 154.396434 
L 279.924037 153.834277 
L 280.112512 144.115775 
L 280.206736 145.555238 
L 280.395157 138.017224 
L 280.489355 138.366442 
L 280.771892 128.784221 
L 280.866054 129.465623 
L 281.242609 120.402971 
L 281.336725 118.972026 
L 281.52493 110.624846 
L 281.61902 112.243177 
L 281.7131 111.050723 
L 282.183366 94.364881 
L 282.277392 97.950761 
L 282.653407 90.634203 
L 282.747388 91.102667 
L 282.84136 91.247465 
L 283.217158 79.348475 
L 283.311086 82.040015 
L 283.968322 65.175305 
L 284.062177 66.725495 
L 284.343688 57.134756 
L 284.531316 61.385004 
L 284.625117 60.712119 
L 284.812691 55.669741 
L 284.906465 55.541978 
L 285.187731 46.956308 
L 285.281469 52.058308 
L 285.375197 51.887958 
L 285.468916 51.922028 
L 285.843703 44.443636 
L 286.031043 50.439978 
L 286.124699 50.695504 
L 286.218346 46.888168 
L 286.311984 48.932375 
L 286.405613 48.15728 
L 286.499233 49.903373 
L 286.592844 49.792645 
L 286.686446 47.833613 
L 286.873622 56.035995 
L 286.967196 55.371628 
L 287.154318 50.388872 
L 287.341404 56.768503 
L 287.434934 56.385214 
L 287.621965 60.473628 
L 287.715467 54.886128 
L 287.80896 56.402249 
L 287.902445 54.971304 
L 287.995919 59.383384 
L 288.089385 57.952439 
L 288.463159 62.909642 
L 288.556579 62.773361 
L 288.649991 64.178754 
L 288.836787 70.311376 
L 289.023546 68.522694 
L 289.116912 70.992778 
L 289.210269 69.255202 
L 289.490286 79.075914 
L 289.676919 84.774142 
L 289.770221 84.458993 
L 289.863515 90.787518 
L 289.956799 88.837004 
L 290.143341 92.380297 
L 290.329846 94.995178 
L 290.516315 97.57599 
L 290.609536 98.282945 
L 290.795951 107.762956 
L 290.889144 106.272388 
L 290.982329 106.587537 
L 291.075504 106.187213 
L 291.913674 124.133649 
L 292.006758 124.278447 
L 292.1929 132.506382 
L 292.285957 132.78746 
L 292.379005 135.504552 
L 292.472044 134.92536 
L 292.565074 134.950913 
L 292.844108 141.867147 
L 293.030086 146.245158 
L 293.123061 150.30802 
L 293.216027 148.86004 
L 293.680721 161.934449 
L 293.773632 162.087764 
L 293.866534 164.242699 
L 293.959427 162.326255 
L 294.238052 168.671815 
L 294.330909 168.348149 
L 294.423756 171.993652 
L 294.516595 171.371872 
L 295.908075 195.476483 
L 296.371445 200.510343 
L 296.834586 206.549272 
L 296.927187 205.86787 
L 297.204935 210.986905 
L 297.390054 211.157256 
L 298.130165 217.647614 
L 298.222638 217.306913 
L 298.407556 219.879207 
L 298.500001 219.598128 
L 298.684864 221.676406 
L 298.962089 224.052797 
L 299.054479 223.643955 
L 299.331595 225.918136 
L 299.423949 225.815925 
L 299.516293 227.00838 
L 299.608628 226.361047 
L 299.885579 228.541535 
L 299.977877 228.371185 
L 300.900356 232.11038 
L 301.176921 232.902511 
L 301.361252 233.592431 
L 302.282353 235.815506 
L 302.466463 235.696261 
L 302.650536 236.471356 
L 302.742559 236.573566 
L 302.834572 236.462838 
L 303.018572 237.178311 
L 303.110558 236.880197 
L 303.38646 237.59567 
L 303.478409 237.442354 
L 303.570349 237.476424 
L 303.66228 237.306074 
L 303.846113 238.191897 
L 303.938016 238.115239 
L 304.121795 238.302625 
L 304.21367 238.370765 
L 304.305536 238.200414 
L 304.397393 238.745536 
L 304.581079 238.413353 
L 304.672909 238.958475 
L 304.856539 238.856264 
L 305.040133 239.00958 
L 305.131916 239.04365 
L 305.22369 239.248071 
L 305.315455 239.11179 
L 305.40721 239.409904 
L 305.498956 239.358799 
L 305.77414 239.546184 
L 305.865849 239.443974 
L 305.957549 239.725052 
L 306.04924 239.656912 
L 306.140922 239.503597 
L 306.415911 239.920956 
L 306.507555 239.852815 
L 306.599191 239.350281 
L 306.690817 240.338315 
L 306.96564 239.80171 
L 307.057229 239.972061 
L 307.148809 239.6995 
L 307.240379 239.886885 
L 307.331941 240.500148 
L 307.423493 239.929473 
L 307.60657 240.38942 
L 307.698094 239.6995 
L 307.789609 240.278692 
L 307.972612 240.014648 
L 308.247046 240.321279 
L 308.338506 240.150929 
L 308.429956 240.321279 
L 308.521397 240.074271 
L 308.704252 240.236104 
L 308.795665 240.644946 
L 308.978464 240.45756 
L 309.069849 240.798261 
L 309.252593 240.346832 
L 309.343951 240.346832 
L 309.435299 240.116859 
L 309.526638 240.627911 
L 309.617968 240.45756 
L 309.709288 240.696051 
L 309.8006 240.474595 
L 309.891902 240.917507 
L 309.983195 240.338315 
L 310.165753 240.679016 
L 310.257018 240.466077 
L 310.348274 240.755674 
L 310.530757 240.474595 
L 310.621985 240.806779 
L 310.895613 240.244622 
L 311.077985 240.483113 
L 311.169158 240.45756 
L 311.351474 240.644946 
L 311.533753 240.372385 
L 311.624879 240.576805 
L 311.715996 240.466077 
L 311.807103 240.857884 
L 311.989289 240.619393 
L 312.080369 240.653463 
L 312.171439 240.943059 
L 312.2625 240.883436 
L 312.353551 240.372385 
L 312.535626 240.951577 
L 312.626649 240.755674 
L 312.717663 241.028234 
L 313.081627 240.644946 
L 313.354502 240.45756 
L 313.536373 240.772709 
L 313.627294 240.602358 
L 313.900002 240.832331 
L 313.990885 240.483113 
L 314.08176 240.602358 
L 314.172625 240.994164 
L 314.263481 240.5257 
L 314.354328 240.661981 
L 314.445165 241.019717 
L 314.717621 240.45756 
L 314.808421 240.900472 
L 314.899212 240.738638 
L 315.080766 241.036752 
L 315.171528 240.900472 
L 315.262282 240.832331 
L 315.353026 240.551253 
L 315.534487 240.900472 
L 315.625202 240.49163 
L 315.715909 241.104892 
L 315.806607 240.696051 
L 315.897295 240.798261 
L 316.259954 240.747156 
L 316.350596 240.798261 
L 316.441228 240.627911 
L 316.531851 240.696051 
L 316.622464 241.04527 
L 316.803663 240.661981 
L 316.894248 241.070822 
L 316.984825 240.610875 
L 317.165949 240.866401 
L 317.256497 240.883436 
L 317.347036 241.053787 
L 317.528085 240.704568 
L 317.618595 240.679016 
L 317.709097 240.840849 
L 317.799589 240.772709 
L 317.890071 241.04527 
L 317.890071 241.04527 
" clip-path="url(#p6bce3ed4fd)" style="fill: none; stroke: #ff0000; stroke-width: 2.5; stroke-linecap: square"/>
   </g>
   <g id="line2d_22">
    <path d="M 209.389967 240.308042 
L 209.590993 241.154147 
L 209.691493 240.038008 
L 209.89247 240.920118 
L 210.193871 240.686089 
L 210.294321 241.064136 
L 210.394763 240.542071 
L 210.495197 241.26216 
L 210.69604 240.362048 
L 210.896849 241.118143 
L 211.097625 240.650084 
L 211.198 240.560073 
L 211.298366 241.280163 
L 211.499075 240.308042 
L 211.69975 240.578075 
L 211.800076 240.506066 
L 212.000701 241.064136 
L 212.201292 240.488064 
L 212.40185 241.064136 
L 212.502117 240.470062 
L 212.602375 241.280163 
L 212.702624 239.89399 
L 212.802866 240.7761 
L 213.10354 240.182026 
L 213.303947 241.406178 
L 213.404138 241.280163 
L 213.50432 241.676212 
L 213.804818 240.722093 
L 213.904967 240.686089 
L 214.105241 241.046134 
L 214.205365 241.10014 
L 214.30548 240.704091 
L 214.405588 240.794102 
L 214.505687 240.506066 
L 214.705859 241.424181 
L 214.905998 240.560073 
L 215.006054 240.128019 
L 215.106103 240.380051 
L 215.206143 240.290039 
L 215.306175 240.488064 
L 215.406198 240.074012 
L 215.706218 240.884113 
L 215.806207 240.686089 
L 215.906189 240.740095 
L 216.106126 240.470062 
L 216.206082 240.668086 
L 216.306029 240.21803 
L 216.5059 241.118143 
L 216.705736 240.200028 
L 216.805642 240.740095 
L 217.005428 240.182026 
L 217.105308 240.524069 
L 217.20518 240.254035 
L 217.404899 241.82023 
L 217.504745 241.26216 
L 217.704414 240.398053 
L 217.804235 240.542071 
L 218.003853 240.794102 
L 218.103649 240.650084 
L 218.203437 240.794102 
L 218.303216 240.470062 
L 218.402987 240.974125 
L 218.502749 240.380051 
L 218.602503 240.740095 
L 218.702249 240.164024 
L 218.801986 240.686089 
L 218.901715 240.362048 
L 219.001435 241.028131 
L 219.101147 240.992127 
L 219.200851 240.992127 
L 219.300546 240.398053 
L 219.400232 240.45206 
L 219.499911 240.128019 
L 219.599581 240.686089 
L 219.699242 240.61408 
L 219.798895 240.182026 
L 219.898539 240.236033 
L 219.998175 240.974125 
L 220.197422 240.146021 
L 220.396634 240.956122 
L 220.496229 240.362048 
L 220.595813 240.578075 
L 220.695391 239.839983 
L 220.794959 240.308042 
L 220.894519 240.236033 
L 220.99407 240.740095 
L 221.093614 239.767974 
L 221.193148 239.89399 
L 221.292674 239.551947 
L 221.392192 240.308042 
L 221.491702 239.875988 
L 221.690695 240.038008 
L 221.790178 239.677963 
L 221.889654 239.803979 
L 221.989121 240.344046 
L 222.08858 239.659961 
L 222.18803 240.182026 
L 222.287471 239.461936 
L 222.386905 240.200028 
L 222.585746 239.371925 
L 222.784553 239.101891 
L 222.883944 239.713968 
L 222.983326 239.191903 
L 223.182066 240.002003 
L 223.380771 239.371925 
L 223.480111 239.56995 
L 223.579443 239.785977 
L 223.678766 240.524069 
L 223.877387 239.587952 
L 223.976685 239.155898 
L 224.175255 239.984001 
L 224.274527 239.659961 
L 224.37379 239.73197 
L 224.572293 238.84986 
L 224.770761 239.515943 
L 224.969195 239.56995 
L 225.068399 240.200028 
L 225.167596 239.119894 
L 225.266783 239.695965 
L 225.365962 239.605954 
L 225.564294 238.921869 
L 225.663448 239.245909 
L 225.762593 239.029882 
L 225.861729 239.461936 
L 226.059977 237.96775 
L 226.159088 238.52582 
L 226.258191 238.12977 
L 226.357285 238.345797 
L 226.45637 237.661712 
L 226.555447 237.913743 
L 226.654516 237.157649 
L 226.753576 237.463687 
L 226.852627 237.391678 
L 226.951671 237.913743 
L 227.149731 236.077514 
L 227.347758 235.357425 
L 227.54575 233.935248 
L 227.644734 234.313295 
L 227.842675 233.845236 
L 227.941633 231.882992 
L 228.040583 232.153025 
L 228.535202 228.49857 
L 228.634101 226.500321 
L 228.73299 226.788357 
L 228.930745 224.64609 
L 229.029609 224.178032 
L 230.708998 198.452826 
L 230.807709 194.672355 
L 230.906412 196.23855 
L 231.301135 184.951144 
L 231.399795 184.069034 
L 231.695722 175.175926 
L 231.892965 168.94715 
L 232.188764 160.648116 
L 232.681592 147.344458 
L 233.0757 131.682507 
L 233.174206 129.558242 
L 233.666606 109.071689 
L 233.76506 107.649512 
L 233.961943 96.668144 
L 234.060372 96.110074 
L 234.158792 94.79591 
L 234.454001 81.15021 
L 234.552386 81.798291 
L 234.650764 81.006192 
L 234.847492 70.996945 
L 235.044187 64.030077 
L 235.339164 52.292614 
L 235.437473 55.389 
L 235.535773 52.760673 
L 235.634064 54.650908 
L 235.732347 53.516767 
L 235.928888 44.443636 
L 236.223633 49.412255 
L 236.321864 50.546397 
L 236.518301 45.541773 
L 236.616507 47.017957 
L 236.714704 44.587654 
L 236.911073 53.210729 
L 237.009244 50.222356 
L 237.303706 59.133467 
L 237.401843 53.696789 
L 237.990484 75.92956 
L 238.186629 83.616517 
L 238.578815 100.556628 
L 240.341949 164.410585 
L 240.439819 164.644614 
L 240.733377 174.869888 
L 240.831213 176.436083 
L 241.124668 187.111413 
L 241.222469 186.823377 
L 241.418045 194.258304 
L 241.51582 194.114286 
L 242.200004 209.056148 
L 242.786111 217.82324 
L 242.883765 218.363307 
L 243.079047 221.369682 
L 243.176676 221.927751 
L 243.469508 225.186157 
L 243.567102 225.582207 
L 243.762263 227.814485 
L 243.859831 227.77848 
L 244.05494 230.136774 
L 244.152482 230.244788 
L 244.347539 231.270916 
L 244.542562 232.67509 
L 244.73755 234.097268 
L 244.932504 234.259288 
L 245.029968 234.11527 
L 245.322307 236.401555 
L 245.419736 236.383553 
L 245.517156 236.527571 
L 245.711971 236.905618 
L 245.809366 236.851611 
L 246.198856 237.787728 
L 246.296208 237.211656 
L 246.39355 238.579826 
L 246.490884 237.859737 
L 246.588209 238.507817 
L 246.685525 237.931745 
L 246.782833 239.01188 
L 246.880132 238.68784 
L 247.074704 239.047885 
L 247.171976 238.831858 
L 247.269241 239.443934 
L 247.366496 239.065887 
L 247.463743 239.407929 
L 247.560981 238.777851 
L 247.755432 239.515943 
L 247.852644 239.515943 
L 247.949847 240.146021 
L 248.144228 239.101891 
L 248.241405 239.767974 
L 248.435734 239.479938 
L 248.532885 240.200028 
L 248.630028 239.965999 
L 248.727161 240.470062 
L 248.921403 239.317918 
L 249.2127 240.21803 
L 249.309782 239.821981 
L 249.406855 240.038008 
L 249.503919 240.596077 
L 249.600975 240.254035 
L 249.698022 240.344046 
L 249.79506 240.074012 
L 249.892089 240.290039 
L 249.98911 240.05601 
L 250.086122 241.298165 
L 250.28012 239.947997 
L 250.377106 239.875988 
L 250.474083 240.21803 
L 250.571051 239.695965 
L 250.764962 240.704091 
L 250.861904 239.839983 
L 250.958838 240.920118 
L 251.055763 240.470062 
L 251.152679 240.794102 
L 251.249586 239.821981 
L 251.540256 241.190151 
L 251.733993 240.542071 
L 251.927694 240.344046 
L 252.024531 240.362048 
L 252.12136 240.182026 
L 252.218181 240.902116 
L 252.314992 240.506066 
L 252.411795 240.578075 
L 252.508589 240.344046 
L 252.605374 240.866111 
L 252.70215 240.21803 
L 252.798918 240.380051 
L 252.895677 240.956122 
L 253.185902 240.05601 
L 253.379341 241.136145 
L 253.572746 240.326044 
L 253.669435 241.190151 
L 253.766115 240.236033 
L 253.862787 240.362048 
L 253.95945 240.992127 
L 254.056104 240.470062 
L 254.152749 240.93812 
L 254.346014 240.200028 
L 254.442633 241.118143 
L 254.539243 240.866111 
L 254.732438 239.821981 
L 254.925597 241.082138 
L 255.022164 240.488064 
L 255.118722 240.93812 
L 255.215271 240.434057 
L 255.311811 241.370174 
L 255.408343 241.244158 
L 255.60138 240.45206 
L 255.697885 240.740095 
L 255.794382 241.424181 
L 255.987348 240.362048 
L 256.083818 240.848109 
L 256.18028 240.380051 
L 256.373177 241.046134 
L 256.469612 241.064136 
L 256.758865 240.830107 
L 256.855264 239.965999 
L 256.951656 240.794102 
L 257.048039 240.524069 
L 257.240777 241.370174 
L 257.337133 240.254035 
L 257.433481 241.244158 
L 257.529819 241.064136 
L 257.62615 240.506066 
L 257.722471 240.920118 
L 257.818783 240.830107 
L 257.915086 240.992127 
L 258.107667 240.7761 
L 258.203944 240.758098 
L 258.300213 240.578075 
L 258.396472 240.794102 
L 258.492723 240.560073 
L 258.588965 240.794102 
L 258.685198 240.506066 
L 258.781423 241.316167 
L 258.877639 240.7761 
L 258.973845 240.794102 
L 259.070044 240.560073 
L 259.166233 240.812104 
L 259.358585 240.182026 
L 259.550902 240.93812 
L 259.647047 240.812104 
L 259.839312 240.578075 
L 259.935431 241.280163 
L 260.03154 241.244158 
L 260.223734 240.920118 
L 260.319818 240.920118 
L 260.415893 240.542071 
L 260.511959 240.596077 
L 260.608016 240.7761 
L 260.704065 240.398053 
L 260.896135 241.298165 
L 260.992157 240.524069 
L 261.088171 241.478187 
L 261.184175 241.442183 
L 261.376157 240.812104 
L 261.472135 240.920118 
L 261.664065 240.380051 
L 261.760016 241.316167 
L 261.855959 241.280163 
L 261.951893 241.190151 
L 262.047818 240.650084 
L 262.143734 240.848109 
L 262.239642 240.704091 
L 262.33554 240.902116 
L 262.43143 240.21803 
L 262.527311 240.884113 
L 262.719046 240.686089 
L 262.814901 241.478187 
L 263.006583 240.740095 
L 263.198231 240.470062 
L 263.485635 241.244158 
L 263.581419 240.308042 
L 263.677194 240.722093 
L 263.868717 240.578075 
L 264.060205 241.172149 
L 264.251658 240.182026 
L 264.347371 241.49619 
L 264.443076 240.722093 
L 264.634458 241.442183 
L 264.825804 240.794102 
L 264.921464 240.956122 
L 265.017116 240.704091 
L 265.112758 241.172149 
L 265.208391 241.10014 
L 265.304016 240.740095 
L 265.399632 240.884113 
L 265.495239 241.370174 
L 265.590837 240.45206 
L 265.686426 240.524069 
L 265.877578 240.884113 
L 266.068695 240.45206 
L 266.355303 241.064136 
L 266.450821 240.578075 
L 266.641832 241.10014 
L 266.737323 240.740095 
L 266.92828 241.064136 
L 267.023746 240.7761 
L 267.119202 241.172149 
L 267.21465 240.272037 
L 267.310088 241.118143 
L 267.500939 240.398053 
L 267.691753 240.902116 
L 267.787148 240.182026 
L 267.97791 240.758098 
L 268.073277 240.93812 
L 268.073277 240.93812 
" clip-path="url(#p6bce3ed4fd)" style="fill: none; stroke: #a52a2a; stroke-width: 2.5; stroke-linecap: square"/>
   </g>
   <g id="line2d_23">
    <path d="M 177.831688 240.886974 
L 177.934751 240.655233 
L 178.037805 240.935762 
L 178.140851 240.679627 
L 178.243889 240.996746 
L 178.44994 240.533264 
L 178.552954 241.118715 
L 178.861946 240.325916 
L 178.964928 240.984549 
L 179.170866 240.740611 
L 179.273823 241.069927 
L 179.479714 240.19175 
L 179.582647 240.886974 
L 179.685571 240.777202 
L 179.788488 240.984549 
L 179.891397 240.594248 
L 179.994297 241.057731 
L 180.097189 240.850383 
L 180.200074 240.325916 
L 180.30295 240.923565 
L 180.405818 240.557657 
L 180.508678 240.960155 
L 180.61153 240.655233 
L 180.714374 240.86258 
L 180.81721 240.496673 
L 180.920038 241.069927 
L 181.125668 240.386901 
L 181.228472 240.643036 
L 181.331267 241.094321 
L 181.434054 240.643036 
L 181.742367 240.947958 
L 181.845122 241.045534 
L 181.947869 240.484476 
L 182.153337 240.813792 
L 182.25606 240.630839 
L 182.358774 240.728414 
L 182.46148 241.033337 
L 182.564178 240.972352 
L 182.666868 240.765005 
L 182.76955 241.155306 
L 182.872223 240.545461 
L 182.974889 241.045534 
L 183.180196 240.35031 
L 183.282837 241.130912 
L 183.38547 240.947958 
L 183.488095 240.996746 
L 183.590712 241.362653 
L 183.69332 240.411295 
L 183.898514 241.435835 
L 184.001098 240.484476 
L 184.103674 240.765005 
L 184.206242 240.679627 
L 184.308802 241.057731 
L 184.616434 240.643036 
L 184.82148 240.521067 
L 184.923991 241.167503 
L 185.026495 240.447885 
L 185.231476 241.094321 
L 185.333955 240.789399 
L 185.436425 241.204093 
L 185.538887 240.533264 
L 185.641342 240.874777 
L 185.743788 240.484476 
L 186.051077 240.740611 
L 186.153491 240.935762 
L 186.460683 240.447885 
L 186.563064 240.972352 
L 186.665436 240.801596 
L 186.767801 241.02114 
L 186.870158 240.301522 
L 186.972506 240.728414 
L 187.074846 240.66743 
L 187.177178 240.411295 
L 187.279502 241.106518 
L 187.484126 240.447885 
L 187.688717 240.70402 
L 187.790999 240.399098 
L 187.893275 240.801596 
L 188.404527 240.045388 
L 188.506753 240.496673 
L 188.608971 239.874631 
L 188.711181 240.66743 
L 188.813382 239.972206 
L 189.017761 240.50887 
L 189.119938 239.972206 
L 189.222107 240.691823 
L 189.324268 240.045388 
L 189.42642 240.533264 
L 189.528564 240.484476 
L 189.6307 240.557657 
L 189.732829 240.386901 
L 189.93706 241.106518 
L 190.039163 240.081978 
L 190.447495 240.886974 
L 190.549558 240.594248 
L 190.651613 240.801596 
L 190.753659 240.118569 
L 190.957726 240.777202 
L 191.161762 240.630839 
L 191.263767 240.362507 
L 191.365764 240.569854 
L 191.467753 240.130766 
L 191.569734 241.082124 
L 191.671706 240.935762 
L 191.773671 240.50887 
L 191.977575 240.911368 
L 192.181446 240.947958 
L 192.385285 240.313719 
L 192.487192 240.643036 
L 192.58909 240.521067 
L 192.690981 240.582051 
L 192.792864 240.277129 
L 192.894738 240.460082 
L 193.098461 240.203947 
L 193.302153 240.838186 
L 193.403985 240.386901 
L 193.50581 240.789399 
L 193.811236 240.289326 
L 193.913028 240.447885 
L 194.116588 240.374704 
L 194.218355 240.35031 
L 194.421866 240.679627 
L 194.523609 240.094175 
L 194.625343 240.789399 
L 194.72707 240.728414 
L 195.0322 240.008797 
L 195.133893 240.167357 
L 195.337256 239.764859 
L 195.438924 239.899025 
L 195.540585 239.630693 
L 195.642238 240.118569 
L 195.743882 239.545314 
L 195.845518 239.874631 
L 195.947145 238.764713 
L 196.150376 239.533118 
L 196.353574 238.776909 
L 196.455161 238.8135 
L 196.556739 238.581759 
L 196.658309 237.849945 
L 196.759871 238.606153 
L 197.470574 235.276398 
L 197.57207 235.788668 
L 197.876509 233.605422 
L 197.977971 233.702997 
L 198.586576 229.958548 
L 198.992148 225.726222 
L 199.09352 225.653041 
L 199.904201 215.88332 
L 200.20807 209.089645 
L 200.410608 207.272306 
L 202.231961 164.009887 
L 203.04059 134.493379 
L 203.343689 123.955254 
L 203.545714 112.978041 
L 203.646714 112.636527 
L 203.848688 100.585986 
L 203.949664 101.366588 
L 204.656256 77.875351 
L 204.757165 75.679908 
L 204.958957 65.446705 
L 205.261583 54.957368 
L 205.362442 53.859646 
L 205.564134 50.688451 
L 205.664968 52.981469 
L 205.765793 45.553555 
L 205.86661 45.956052 
L 205.96742 47.163546 
L 206.06822 44.443636 
L 206.169012 47.419681 
L 206.269796 45.724311 
L 206.370572 50.688451 
L 206.471339 49.773683 
L 206.572098 55.054943 
L 206.672849 51.493447 
L 206.773591 53.762071 
L 206.874325 52.517987 
L 207.176477 62.287707 
L 207.478554 70.788949 
L 207.881207 86.693712 
L 208.283726 99.317508 
L 208.384335 101.183634 
L 208.786688 125.126157 
L 208.887255 127.35819 
L 209.389967 149.446784 
L 209.490484 151.922755 
L 209.89247 168.632514 
L 211.69975 215.127112 
L 212.000701 218.676412 
L 212.502117 226.177508 
L 212.602375 225.762813 
L 212.903099 229.812185 
L 213.003323 229.982942 
L 213.303947 232.336944 
L 213.604495 234.690947 
L 213.704661 234.20307 
L 213.904967 236.203363 
L 214.005108 235.678896 
L 214.205365 236.459498 
L 214.605777 238.240246 
L 214.705859 237.557219 
L 214.905998 238.776909 
L 215.006054 238.398805 
L 215.506213 239.899025 
L 215.60622 239.691677 
L 215.706218 240.057584 
L 215.806207 239.533118 
L 215.906189 240.069781 
L 216.006161 239.886828 
L 216.206082 240.582051 
L 216.306029 240.094175 
L 216.405969 240.19175 
L 216.605822 240.472279 
L 216.705736 240.252735 
L 216.805642 240.813792 
L 217.005428 240.50887 
L 217.20518 240.606445 
L 217.305044 240.789399 
L 217.504745 240.728414 
L 217.604584 240.301522 
L 217.704414 240.435688 
L 217.804235 240.801596 
L 217.904048 240.716217 
L 218.003853 240.399098 
L 218.203437 240.935762 
L 218.303216 240.50887 
L 218.602503 240.874777 
L 218.702249 240.70402 
L 218.801986 240.825989 
L 219.001435 240.545461 
L 219.200851 241.118715 
L 219.300546 240.618642 
L 219.400232 240.679627 
L 219.599581 241.167503 
L 219.798895 240.472279 
L 219.898539 241.057731 
L 219.998175 240.789399 
L 220.097803 240.838186 
L 220.297032 240.521067 
L 220.595813 240.825989 
L 220.894519 240.728414 
L 220.99407 240.423492 
L 221.093614 240.545461 
L 221.193148 241.118715 
L 221.292674 240.655233 
L 221.491702 240.886974 
L 221.690695 240.86258 
L 221.790178 240.630839 
L 221.889654 240.996746 
L 222.08858 240.728414 
L 222.18803 240.813792 
L 222.287471 240.057584 
L 222.48633 240.545461 
L 222.585746 240.521067 
L 222.784553 240.777202 
L 222.883944 240.728414 
L 222.983326 240.947958 
L 223.182066 240.801596 
L 223.281423 240.374704 
L 223.380771 240.911368 
L 223.480111 240.606445 
L 223.579443 241.252881 
L 223.678766 240.606445 
L 223.77808 241.106518 
L 223.877387 240.594248 
L 224.075973 240.911368 
L 224.175255 240.679627 
L 224.274527 241.057731 
L 224.37379 240.752808 
L 224.572293 240.838186 
L 224.770761 240.838186 
L 224.869982 240.777202 
L 224.969195 240.947958 
L 225.068399 240.435688 
L 225.167596 240.533264 
L 225.266783 241.069927 
L 225.465132 240.50887 
L 225.663448 240.521067 
L 225.762593 240.911368 
L 225.960857 240.606445 
L 226.159088 241.204093 
L 226.357285 240.655233 
L 226.654516 240.935762 
L 226.753576 240.886974 
L 226.852627 240.338113 
L 226.951671 240.923565 
L 227.050705 240.460082 
L 227.149731 240.728414 
L 227.248748 240.655233 
L 227.347758 240.374704 
L 227.644734 240.789399 
L 227.842675 240.789399 
L 227.941633 240.899171 
L 228.040583 240.655233 
L 228.139523 240.70402 
L 228.33738 241.143109 
L 228.535202 240.533264 
L 228.634101 241.240684 
L 228.831872 240.582051 
L 228.930745 241.509016 
L 229.326151 240.569854 
L 229.424981 241.1797 
L 229.523803 240.996746 
L 229.622616 240.557657 
L 229.721421 241.057731 
L 229.820217 240.935762 
L 229.919005 241.045534 
L 230.116554 240.484476 
L 230.31407 241.02114 
L 230.708998 240.557657 
L 230.906412 241.106518 
L 231.10379 240.594248 
L 231.202467 240.679627 
L 231.301135 241.033337 
L 231.498446 240.15516 
L 231.597088 240.728414 
L 231.695722 240.691823 
L 231.892965 240.545461 
L 231.991573 240.777202 
L 232.188764 240.582051 
L 232.385921 241.167503 
L 232.484486 240.911368 
L 232.681592 241.082124 
L 232.780132 240.435688 
L 232.878663 241.130912 
L 232.977186 240.472279 
L 233.174206 240.850383 
L 233.272703 240.545461 
L 233.371191 240.582051 
L 233.469671 240.886974 
L 233.568143 240.691823 
L 233.666606 241.094321 
L 233.76506 240.752808 
L 233.863506 241.130912 
L 233.961943 240.338113 
L 234.060372 241.338259 
L 234.257203 240.411295 
L 234.454001 240.886974 
L 234.552386 240.484476 
L 234.650764 241.118715 
L 234.847492 240.752808 
L 234.945844 241.069927 
L 235.044187 241.033337 
L 235.142521 241.1797 
L 235.240847 241.118715 
L 235.339164 240.533264 
L 235.437473 240.886974 
L 235.535773 240.533264 
L 235.634064 240.923565 
L 235.732347 240.86258 
L 235.928888 240.923565 
L 236.125393 240.496673 
L 236.223633 241.301669 
L 236.321864 241.21629 
L 236.420088 240.691823 
L 236.518301 240.765005 
L 236.714704 240.789399 
L 236.911073 240.825989 
L 237.009244 240.789399 
L 237.107407 240.960155 
L 237.205561 240.582051 
L 237.303706 240.923565 
L 237.401843 240.618642 
L 237.598091 241.057731 
L 237.696202 240.765005 
L 237.892398 241.277275 
L 237.990484 240.801596 
L 238.088561 241.106518 
L 238.088561 241.106518 
" clip-path="url(#p6bce3ed4fd)" style="fill: none; stroke: #ee82ee; stroke-width: 2.5; stroke-linecap: square"/>
   </g>
   <g id="line2d_24">
    <path d="M 51.956241 240.761698 
L 52.180034 240.850132 
L 52.29192 240.805915 
L 52.627535 241.210186 
L 52.851244 240.818548 
L 52.963087 240.881716 
L 53.074923 240.692213 
L 53.298575 240.925933 
L 53.522199 240.666946 
L 53.634001 240.837499 
L 53.745795 240.629046 
L 53.969362 240.9512 
L 54.081135 240.9891 
L 54.528157 240.64168 
L 54.639895 241.027001 
L 54.86335 240.837499 
L 54.975066 240.685897 
L 55.198478 241.033318 
L 55.310174 240.755381 
L 55.421863 240.9891 
L 55.645218 240.69853 
L 55.756886 240.97015 
L 55.868546 240.944883 
L 56.091845 240.723797 
L 56.203484 240.755381 
L 56.315116 240.976467 
L 56.649969 240.692213 
L 56.761573 240.755381 
L 56.873169 241.045951 
L 56.984758 240.805915 
L 57.207917 240.900666 
L 57.319485 240.742747 
L 57.5426 240.831182 
L 57.654147 240.755381 
L 57.87722 240.812232 
L 57.988745 240.553245 
L 58.211776 240.742747 
L 58.32328 240.742747 
L 58.434778 240.888032 
L 58.657752 240.799598 
L 58.769228 240.938566 
L 58.880697 240.736431 
L 58.992159 240.963833 
L 59.103613 240.629046 
L 59.215062 240.894349 
L 59.437936 240.471127 
L 59.549363 241.039634 
L 59.8836 240.818548 
L 59.994997 240.768014 
L 60.106388 241.102802 
L 60.329149 240.578512 
L 60.440519 240.786965 
L 60.551882 240.749064 
L 60.663238 240.894349 
L 60.774586 240.824865 
L 60.885927 240.894349 
L 60.997261 240.824865 
L 61.108588 240.603779 
L 61.331221 240.704847 
L 61.442527 240.572195 
L 61.553826 240.906983 
L 61.665117 240.540612 
L 61.776402 240.900666 
L 61.887679 240.666946 
L 62.110213 240.64168 
L 62.332718 240.869082 
L 62.555194 240.786965 
L 62.666422 241.014367 
L 62.777642 240.622729 
L 62.888855 240.723797 
L 63.000061 240.553245 
L 63.111261 240.774331 
L 63.222452 240.647996 
L 63.444815 240.856449 
L 63.555985 240.565879 
L 64.000597 240.881716 
L 64.222859 240.610096 
L 64.445093 240.9891 
L 64.667299 240.742747 
L 64.778391 240.66063 
L 65.111624 240.793281 
L 65.222688 240.761698 
L 65.333744 240.521661 
L 65.666871 240.66063 
L 65.777899 240.9891 
L 65.999933 240.629046 
L 66.110939 240.673263 
L 66.221938 240.925933 
L 66.332931 240.888032 
L 66.443915 240.647996 
L 66.554893 240.93225 
L 66.665864 240.515345 
L 66.776828 240.818548 
L 66.887784 240.647996 
L 67.109675 240.831182 
L 67.22061 240.534295 
L 67.331538 240.837499 
L 67.442458 240.666946 
L 67.553372 240.768014 
L 67.664278 240.527978 
L 67.775177 241.001734 
L 68.107831 240.673263 
L 68.218702 240.755381 
L 68.329565 240.540612 
L 68.994594 240.818548 
L 69.105408 240.414277 
L 69.216213 240.755381 
L 69.327012 240.540612 
L 69.548588 240.824865 
L 69.659366 240.521661 
L 69.880899 240.850132 
L 69.991654 240.64168 
L 70.102403 240.704847 
L 70.213144 240.401643 
L 70.323878 240.704847 
L 70.434605 240.553245 
L 70.545325 240.635363 
L 70.656038 240.869082 
L 70.877442 240.464811 
L 70.988133 240.439544 
L 71.098816 240.824865 
L 71.209493 240.509028 
L 71.430825 240.673263 
L 71.54148 240.69853 
L 71.873403 240.300575 
L 71.984029 240.464811 
L 72.094648 240.42691 
L 72.315865 240.079489 
L 72.426462 240.275308 
L 72.537053 240.205824 
L 72.647636 240.414277 
L 72.979342 239.643634 
L 73.532042 238.708756 
L 73.64256 238.190783 
L 73.753072 238.279218 
L 74.195044 237.94443 
L 74.30552 238.013914 
L 74.526448 237.597009 
L 74.636902 238.096032 
L 74.747347 237.710711 
L 74.857787 237.729661 
L 75.078643 236.194692 
L 75.630657 229.68213 
L 77.506156 196.34236 
L 77.726666 191.775354 
L 78.608413 175.579225 
L 78.718599 176.570953 
L 78.828778 175.440256 
L 79.049113 167.77173 
L 79.26942 163.35001 
L 79.379562 164.070119 
L 79.709946 144.658767 
L 79.820059 144.216595 
L 80.26044 123.061822 
L 80.370517 129.182746 
L 80.480587 127.180339 
L 81.470889 164.701793 
L 81.580886 163.817449 
L 81.690875 161.019132 
L 81.800858 165.504019 
L 81.910833 161.170734 
L 82.020802 163.021539 
L 82.130762 162.162462 
L 82.240716 163.267892 
L 82.350662 160.583276 
L 82.570532 153.401139 
L 83.120082 127.913081 
L 83.55959 88.705056 
L 84.218634 53.00914 
L 84.328449 56.104344 
L 84.438256 44.443636 
L 84.548057 52.263764 
L 84.65785 51.739475 
L 84.767636 46.319709 
L 84.987186 50.867764 
L 85.316456 76.92433 
L 85.426198 80.341688 
L 85.865094 127.786746 
L 85.974799 132.27795 
L 86.413549 170.829034 
L 86.961821 205.173167 
L 87.290696 216.265368 
L 87.729094 225.380428 
L 88.057816 228.507216 
L 89.15308 236.365244 
L 89.262565 236.756882 
L 89.481515 237.818095 
L 89.700436 238.74034 
L 89.919328 239.510982 
L 90.028762 239.327797 
L 90.138189 239.694168 
L 90.466427 239.454132 
L 90.575825 239.713118 
L 90.685216 239.681535 
L 90.794599 239.454132 
L 90.903975 239.814186 
L 91.122705 239.631001 
L 91.232059 239.599417 
L 91.6694 240.066856 
L 91.778718 240.079489 
L 91.888027 239.915254 
L 92.106625 240.38901 
L 92.215912 240.325842 
L 92.325193 240.028955 
L 92.434466 240.591146 
L 92.543732 240.142657 
L 92.65299 240.685897 
L 92.762241 240.540612 
L 92.871484 240.647996 
L 92.98072 240.483761 
L 93.199171 240.761698 
L 93.417591 240.527978 
L 93.526791 240.483761 
L 93.635983 240.799598 
L 93.963514 240.603779 
L 94.072677 240.69853 
L 94.181832 240.591146 
L 94.40012 240.799598 
L 94.509253 240.490078 
L 94.618378 240.692213 
L 94.836608 240.534295 
L 94.945711 240.71748 
L 95.054807 240.635363 
L 95.163896 240.837499 
L 95.272977 240.635363 
L 95.382051 240.736431 
L 95.491118 240.9891 
L 95.600177 240.647996 
L 95.709229 240.812232 
L 95.92731 240.761698 
L 96.03634 240.875399 
L 96.254377 240.786965 
L 96.363384 240.818548 
L 96.690363 240.572195 
L 96.799341 240.786965 
L 97.017274 240.610096 
L 97.235178 240.71748 
L 97.453053 240.458494 
L 97.561979 240.559562 
L 97.670898 240.490078 
L 97.779809 240.584829 
L 97.888713 240.40796 
L 98.21538 240.622729 
L 98.324254 240.344793 
L 98.541981 240.704847 
L 98.650833 240.610096 
L 98.868515 240.869082 
L 98.977345 240.843815 
L 99.194982 240.584829 
L 99.30379 240.944883 
L 99.41259 240.799598 
L 99.521383 240.875399 
L 99.630168 240.692213 
L 99.847716 240.799598 
L 99.95648 240.490078 
L 100.065236 240.793281 
L 100.282725 240.584829 
L 100.391458 240.93225 
L 101.043702 240.572195 
L 101.152384 240.591146 
L 101.261058 240.774331 
L 101.369724 240.692213 
L 101.478384 240.938566 
L 101.69568 240.66063 
L 101.912946 240.749064 
L 102.021568 240.812232 
L 102.130183 240.622729 
L 102.23879 240.812232 
L 102.347389 240.711164 
L 102.564566 240.875399 
L 102.673144 240.818548 
L 102.781714 240.420593 
L 102.890276 240.786965 
L 102.998831 240.723797 
L 103.107379 240.881716 
L 103.215919 240.673263 
L 103.432976 240.824865 
L 103.541494 240.603779 
L 103.758508 240.982784 
L 103.975491 240.603779 
L 104.409368 241.090168 
L 104.517819 240.527978 
L 104.843126 240.856449 
L 104.951547 240.673263 
L 105.168366 240.957517 
L 105.276765 240.69853 
L 105.385156 240.906983 
L 105.601915 240.723797 
L 105.710284 240.995417 
L 105.818645 240.71748 
L 106.035345 240.862766 
L 106.576964 240.913299 
L 106.685265 240.685897 
L 106.793559 241.045951 
L 107.010125 240.843815 
L 107.22666 240.711164 
L 107.334917 240.837499 
L 107.551407 240.786965 
L 107.767868 240.875399 
L 107.984299 240.736431 
L 108.200699 240.862766 
L 108.41707 240.768014 
L 108.525244 240.837499 
L 108.633411 240.704847 
L 108.74157 240.9891 
L 108.957866 240.850132 
L 109.174132 240.502711 
L 109.390368 240.793281 
L 109.498475 240.616413 
L 109.714665 240.919616 
L 109.82275 240.515345 
L 110.038896 240.963833 
L 110.146958 240.93225 
L 110.255012 240.774331 
L 110.363059 240.837499 
L 110.471098 240.382693 
L 110.687153 240.780648 
L 110.90318 240.913299 
L 111.119175 240.768014 
L 111.227162 240.780648 
L 111.335141 240.995417 
L 111.443113 240.685897 
L 111.551077 240.862766 
L 111.659033 240.635363 
L 111.766983 240.944883 
L 112.198704 240.584829 
L 112.306615 241.027001 
L 112.953926 240.509028 
L 113.061785 240.755381 
L 113.169636 240.629046 
L 113.493145 240.925933 
L 113.600966 240.755381 
L 113.816586 240.818548 
L 113.924385 240.67958 
L 114.032175 240.818548 
L 114.247735 240.774331 
L 114.463264 240.869082 
L 114.571018 241.027001 
L 114.786502 240.818548 
L 114.894232 241.027001 
L 115.001955 240.559562 
L 115.217379 240.869082 
L 115.32508 240.723797 
L 115.432773 241.083852 
L 115.648136 240.647996 
L 115.755806 240.584829 
L 116.078773 241.027001 
L 116.186412 240.502711 
L 116.294045 240.736431 
L 116.40167 240.635363 
L 116.616898 240.843815 
L 116.7245 240.692213 
L 117.047262 240.976467 
L 117.262399 240.711164 
L 117.477505 240.685897 
L 117.585047 241.033318 
L 117.692581 240.799598 
L 117.692581 240.799598 
" clip-path="url(#p6bce3ed4fd)" style="fill: none; stroke: #0000ff; stroke-width: 2.5; stroke-linecap: square"/>
   </g>
   <g id="patch_3">
    <path d="M 54 252 
L 54 34.56 
" style="fill: none; stroke: #000000; stroke-width: 2; stroke-linejoin: miter; stroke-linecap: square"/>
   </g>
   <g id="patch_4">
    <path d="M 388.8 252 
L 388.8 34.56 
" style="fill: none; stroke: #000000; stroke-width: 2; stroke-linejoin: miter; stroke-linecap: square"/>
   </g>
   <g id="patch_5">
    <path d="M 54 252 
L 388.8 252 
" style="fill: none; stroke: #000000; stroke-width: 2; stroke-linejoin: miter; stroke-linecap: square"/>
   </g>
   <g id="patch_6">
    <path d="M 54 34.56 
L 388.8 34.56 
" style="fill: none; stroke: #000000; stroke-width: 2; stroke-linejoin: miter; stroke-linecap: square"/>
   </g>
   <g id="text_15">
    <text style="font: 24px 'sans-serif'; text-anchor: middle" x="221.4" y="28.56" transform="rotate(-0, 221.4, 28.56)">Pump Spectra</text>
   </g>
  </g>
 </g>
 <defs>
  <clipPath id="p6bce3ed4fd">
   <rect x="54" y="34.56" width="334.8" height="217.44"/>
  </clipPath>
 </defs>
</svg>
